<svg xmlns="http://www.w3.org/2000/svg" xmlns:xlink="http://www.w3.org/1999/xlink" width="59.844" height="59.045" viewBox="0 0 59.844 59.045">
  <defs>
    <style>
      .cls-1 {
        fill: #767676;
      }

      .cls-2 {
        clip-path: url(#clip-path);
      }
    </style>
    <clipPath id="clip-path">
      <rect id="Rect치ngulo_1185" data-name="Rect치ngulo 1185" class="cls-1" width="58.547" height="58.528"/>
    </clipPath>
  </defs>
  <g id="Grupo_1710" data-name="Grupo 1710" transform="translate(-1432.192 -4227)">
    <g id="Grupo_850" data-name="Grupo 850" transform="translate(1432.549 4227.277)">
      <g id="Grupo_835" data-name="Grupo 835">
        <g id="Grupo_834" data-name="Grupo 834" class="cls-2">
          <path id="Trazado_2226" data-name="Trazado 2226" class="cls-1" d="M715.863-194.669a3.763,3.763,0,0,1-1.623.4c-1.336,0-2.023-.93-2.023-2.352a1.985,1.985,0,0,1,.5-1.629,1.985,1.985,0,0,1,1.58-.639,2.608,2.608,0,0,1,1.477.392l-.365.665a2,2,0,0,0-1.1-.285c-.811,0-1.176.593-1.176,1.485,0,1.057.394,1.621,1.165,1.621a1.8,1.8,0,0,0,.757-.14v-.831h-.612l-.053-.646h1.469Z" transform="translate(-682.877 203.724)"/>
          <path id="Trazado_2227" data-name="Trazado 2227" class="cls-1" d="M725.48-193.975c0-.784-.234-1.057-.64-1.057s-.627.279-.627,1.057.209,1.065.627,1.065.64-.285.64-1.065m.891,0c0,1.112-.558,1.7-1.531,1.7s-1.531-.586-1.531-1.7a1.51,1.51,0,0,1,.38-1.193,1.51,1.51,0,0,1,1.15-.5,1.518,1.518,0,0,1,1.147.5,1.519,1.519,0,0,1,.383,1.19" transform="translate(-689.744 201.72)"/>
          <path id="Trazado_2228" data-name="Trazado 2228" class="cls-1" d="M733.908-195.3a.784.784,0,0,0,.593.334c.378,0,.659-.279.659-1.065s-.246-1.051-.645-1.051a.918.918,0,0,0-.608.26Zm-.06-2.021a1.152,1.152,0,0,1,.864-.4c.765,0,1.317.544,1.317,1.689s-.665,1.7-1.424,1.7a1.075,1.075,0,0,1-.941-.459l-.157.394h-.47v-4.59h.87v1.137Z" transform="translate(-695.766 203.775)"/>
        </g>
      </g>
      <path id="Trazado_2229" data-name="Trazado 2229" class="cls-1" d="M742.685-198.983h.878v.784h-.878Zm.028,4.59v-2.634l-.381-.08v-.546h1.245v3.26Z" transform="translate(-701.521 203.775)"/>
      <g id="Grupo_837" data-name="Grupo 837">
        <g id="Grupo_836" data-name="Grupo 836" class="cls-2">
          <path id="Trazado_2230" data-name="Trazado 2230" class="cls-1" d="M748.835-195.023c-.431,0-.61.392-.61.784h1.19c0-.419-.126-.784-.579-.784m-.61,1.289a.739.739,0,0,0,.223.606.738.738,0,0,0,.614.2,2.195,2.195,0,0,0,.958-.271l.168.61a2.666,2.666,0,0,1-1.231.314,1.515,1.515,0,0,1-1.2-.473,1.515,1.515,0,0,1-.4-1.23c0-1.005.485-1.689,1.531-1.689.983,0,1.371.731,1.371,1.549v.379Z" transform="translate(-704.629 201.717)"/>
          <path id="Trazado_2231" data-name="Trazado 2231" class="cls-1" d="M758.536-194.862a1.454,1.454,0,0,0-.408-.053.926.926,0,0,0-.583.219v2.368h-.864v-3.26h.6l.1.441h.017a.873.873,0,0,1,.784-.5,1.473,1.473,0,0,1,.378.046Z" transform="translate(-710.405 201.708)"/>
          <path id="Trazado_2232" data-name="Trazado 2232" class="cls-1" d="M764.944-192.338v-1.937c0-.492-.187-.724-.583-.724a1.066,1.066,0,0,0-.574.2v2.462h-.872v-3.26h.6l.133.373a1.355,1.355,0,0,1,1.03-.439c.826,0,1.151.486,1.151,1.309v2.017Z" transform="translate(-714.265 201.72)"/>
          <path id="Trazado_2233" data-name="Trazado 2233" class="cls-1" d="M774.266-193.975c0-.784-.234-1.057-.638-1.057s-.627.279-.627,1.057.2,1.065.627,1.065.638-.285.638-1.065m.891,0c0,1.112-.558,1.7-1.529,1.7s-1.529-.586-1.529-1.7a1.51,1.51,0,0,1,.38-1.193,1.51,1.51,0,0,1,1.149-.5,1.518,1.518,0,0,1,1.146.5,1.518,1.518,0,0,1,.383,1.19" transform="translate(-719.953 201.72)"/>
          <path id="Trazado_2234" data-name="Trazado 2234" class="cls-1" d="M714.329-181.378a1.154,1.154,0,0,0-.594-.157c-.412,0-.671.279-.671,1.038s.246,1.069.657,1.069a.858.858,0,0,0,.607-.279Zm.082-.492a1.94,1.94,0,0,1-.082-.6v-.983h.866v4.59h-.706l-.1-.359a1.057,1.057,0,0,1-.864.425c-.739,0-1.333-.532-1.333-1.7,0-1.079.613-1.7,1.411-1.7a1.061,1.061,0,0,1,.812.314" transform="translate(-682.858 194.159)"/>
          <path id="Trazado_2235" data-name="Trazado 2235" class="cls-1" d="M723.292-179.5c-.433,0-.612.394-.612.784h1.19c0-.42-.125-.784-.579-.784m-.612,1.291a.738.738,0,0,0,.223.606.739.739,0,0,0,.614.2,2.169,2.169,0,0,0,.958-.273l.166.612a2.645,2.645,0,0,1-1.229.314,1.516,1.516,0,0,1-1.2-.473,1.516,1.516,0,0,1-.4-1.23c0-1,.488-1.689,1.531-1.689.987,0,1.371.729,1.371,1.549v.379Z" transform="translate(-688.813 192.102)"/>
          <path id="Trazado_2236" data-name="Trazado 2236" class="cls-1" d="M736.678-178.745c-1.264,0-1.943-.837-1.943-2.333,0-1.4.67-2.289,1.943-2.289a2.823,2.823,0,0,1,1.531.379l-.332.7a1.9,1.9,0,0,0-1.1-.314c-.748,0-1.118.524-1.118,1.51,0,1.037.372,1.568,1.1,1.568a2.086,2.086,0,0,0,1.184-.412l.279.706a2.646,2.646,0,0,1-1.543.478" transform="translate(-696.817 194.107)"/>
          <path id="Trazado_2237" data-name="Trazado 2237" class="cls-1" d="M745.431-178.863v-4.59h.869v1.2a1.364,1.364,0,0,1-.086.505,1.16,1.16,0,0,1,.941-.445c.93,0,1.192.485,1.192,1.309v2.017h-.885v-1.943c0-.47-.188-.72-.579-.72a1.018,1.018,0,0,0-.58.2v2.462Z" transform="translate(-703.439 194.159)"/>
        </g>
      </g>
      <path id="Trazado_2238" data-name="Trazado 2238" class="cls-1" d="M754.987-183.453h.878v.784h-.878Zm.028,4.59V-181.5l-.378-.078v-.546h1.244v3.26Z" transform="translate(-709.139 194.159)"/>
      <g id="Grupo_839" data-name="Grupo 839">
        <g id="Grupo_838" data-name="Grupo 838" class="cls-2">
          <path id="Trazado_2239" data-name="Trazado 2239" class="cls-1" d="M760-179.73v-3.723h.858v3.677c0,.273.166.314.527.314v.61a2.718,2.718,0,0,1-.47.053c-.668,0-.906-.353-.906-.932" transform="translate(-712.457 194.159)"/>
          <path id="Trazado_2240" data-name="Trazado 2240" class="cls-1" d="M766.275-179.5c-.433,0-.61.394-.61.784h1.19c0-.42-.125-.784-.58-.784m-.61,1.291a.738.738,0,0,0,.223.606.739.739,0,0,0,.614.2,2.168,2.168,0,0,0,.955-.273l.168.612a2.653,2.653,0,0,1-1.233.314,1.514,1.514,0,0,1-1.2-.473,1.514,1.514,0,0,1-.4-1.23c0-1,.486-1.689,1.532-1.689.983,0,1.369.729,1.369,1.549v.379Z" transform="translate(-715.43 192.102)"/>
          <path id="Trazado_2241" data-name="Trazado 2241" class="cls-1" d="M713.72-71.349c0-.293-.249-.37-.441-.37s-.444.077-.444.37a.392.392,0,0,0,.444.389c.205,0,.441-.074.441-.389m-.536,1.546a.364.364,0,0,0-.268.1.364.364,0,0,0-.111.264c0,.215.2.373.47.373.3,0,.494-.157.494-.409,0-.215-.193-.3-.582-.328m1.35-2.335-.009.491a1.934,1.934,0,0,1-.47-.088.673.673,0,0,1,.251.389c0,.607-.6.85-1.022.85a1.452,1.452,0,0,1-.314-.045c-.075.025-.121.071-.121.138,0,.267,1.568-.047,1.568.884,0,.582-.555.9-1.177.9-.521,0-1.048-.227-1.048-.682,0-.314.253-.485.659-.546-.314-.036-.618-.132-.618-.42,0-.207.191-.359.47-.378a.757.757,0,0,1-.444-.7.909.909,0,0,1,.328-.642.909.909,0,0,1,.692-.2c.268,0,.825.045,1.255.05" transform="translate(-682.857 125.265)"/>
          <path id="Trazado_2242" data-name="Trazado 2242" class="cls-1" d="M720.858-70.9c0-.6-.177-.8-.486-.8s-.481.213-.481.8.157.811.481.811.486-.218.486-.811m.678,0c0,.844-.427,1.3-1.164,1.3s-1.162-.445-1.162-1.3a1.147,1.147,0,0,1,.288-.907,1.148,1.148,0,0,1,.874-.378,1.154,1.154,0,0,1,.872.379,1.154,1.154,0,0,1,.292.905" transform="translate(-687.206 125.266)"/>
          <path id="Trazado_2243" data-name="Trazado 2243" class="cls-1" d="M727.265-71.91a.6.6,0,0,0,.45.254c.289,0,.5-.213.5-.811s-.187-.8-.492-.8a.687.687,0,0,0-.458.2Zm-.047-1.537a.883.883,0,0,1,.657-.3c.582,0,1,.414,1,1.284s-.5,1.3-1.082,1.3a.818.818,0,0,1-.716-.35l-.121.3H726.6v-3.488h.663v.864Z" transform="translate(-691.781 126.826)"/>
        </g>
      </g>
      <rect id="Rect치ngulo_1188" data-name="Rect치ngulo 1188" class="cls-1" width="0.666" height="0.714" transform="translate(37.515 54.893)"/>
      <g id="Grupo_841" data-name="Grupo 841">
        <g id="Grupo_840" data-name="Grupo 840" class="cls-2">
          <path id="Trazado_2244" data-name="Trazado 2244" class="cls-1" d="M738.673-69.829a1.9,1.9,0,0,1-.85.22c-.736,0-1.181-.42-1.181-1.291a1.138,1.138,0,0,1,.288-.919,1.138,1.138,0,0,1,.89-.37,1.661,1.661,0,0,1,.849.2l-.171.45a1.226,1.226,0,0,0-.627-.157c-.345,0-.56.232-.56.784s.205.784.566.784a1.467,1.467,0,0,0,.673-.187Z" transform="translate(-697.999 125.266)"/>
          <path id="Trazado_2245" data-name="Trazado 2245" class="cls-1" d="M743.139-71.877V-74.7h.652v2.794c0,.207.127.238.4.238v.47a2.068,2.068,0,0,1-.365.041c-.505,0-.688-.268-.688-.709" transform="translate(-702.02 126.832)"/>
          <path id="Trazado_2246" data-name="Trazado 2246" class="cls-1" d="M676.1-181.018v.911a1.123,1.123,0,0,0,0-.911" transform="translate(-660.508 192.652)"/>
          <path id="Trazado_2247" data-name="Trazado 2247" class="cls-1" d="M680.591-196.955c-.039.082-.157.082-.172.187-.1-.089.085-.292.172-.187m.627-.038c.088-.053.165-.226.3-.14a2.088,2.088,0,0,1,.193.147.535.535,0,0,1,.179.157c.031.064-.066.267-.187.1-.078-.124-.188-.351-.362-.262-.144.072-.242.174-.278.078-.013-.049.1-.049.157-.078m.017.144c.055-.067.075.224.3.141a.168.168,0,0,1-.3-.141m-.77.314c.023-.008-.011-.127.105-.135a.313.313,0,0,1,.289.188c.024.118-.072.4.3.441a1.013,1.013,0,0,1-.008.116h0a.584.584,0,0,1-.055.194h.067c.494.025.773-.014.914-.157a.844.844,0,0,0,.129-.18.873.873,0,0,0,.077-.681h0a.265.265,0,0,0-.013-.038.4.4,0,0,0-.031-.067,1.449,1.449,0,0,0-.757-.566.479.479,0,0,0-.074-.009h0a.022.022,0,0,1,.014-.008h0a.606.606,0,0,1,.077,0,1.148,1.148,0,0,1,.8.563.471.471,0,0,0,.177-.331h0a.877.877,0,0,1,.058-.329.085.085,0,0,0-.038-.111.081.081,0,0,0-.107.041c-.068.138-.223.063-.157-.077a.083.083,0,0,0-.036-.11.082.082,0,0,0-.063,0,.081.081,0,0,0-.046.043c-.063.132-.213.056-.157-.074a.081.081,0,0,0,0-.062.081.081,0,0,0-.041-.047.083.083,0,0,0-.108.041c-.064.136-.22.058-.157-.078a.085.085,0,0,0-.039-.11.085.085,0,0,0-.107.042.779.779,0,0,1-.13.207,1.618,1.618,0,0,1,.809.428,1.291,1.291,0,0,1,.093.11h0c0,.016.009.027,0,.03h0a.58.58,0,0,0-.1-.092,1.711,1.711,0,0,0-.858-.423c-.157.019-.115.2-.1.314a.4.4,0,0,0-.316.055.4.4,0,0,0-.172.271.5.5,0,0,0,.05.218v.013a.168.168,0,0,1-.071-.08.634.634,0,0,1-.036-.136c-.218.013-.419.129-.4.329a.377.377,0,0,0,.2.271" transform="translate(-663.088 203.232)"/>
          <path id="Trazado_2248" data-name="Trazado 2248" class="cls-1" d="M681.418-172.357c-.157-.183-.552-.093-.552-.093a.6.6,0,0,0,0-.493.594.594,0,0,0-.375-.321.517.517,0,0,0-.444.045h0a.409.409,0,0,0-.041.035.314.314,0,0,0-.088.215.314.314,0,0,0,.314.314.314.314,0,0,0,.177-.056.313.313,0,0,0,.124-.182.314.314,0,0,1,.113.144c.173.547-.444.745-.444.745a2.412,2.412,0,0,1-2.2-.293l.237-.129a.547.547,0,0,1,.216-.047.233.233,0,0,0,0,.039.268.268,0,0,0,.079.19.268.268,0,0,0,.191.078.269.269,0,0,0,.191-.078.268.268,0,0,0,.079-.19.243.243,0,0,0-.038-.132h0l-.02-.028c-.157-.241-.707-.082-.707-.082a.986.986,0,0,0,.019-.773c-.1-.166-.082-.229-.082-.229,0-.157-.039-.177-.039-.177a.2.2,0,0,0-.23-.052c-.22.049-.266-.042-.266-.042-.184-.129-.263-.052-.263-.052-.078.055.03.19.03.19-.2,0-.254.251-.254.251-.08.412.262.447.262.447.243.013.246-.187.246-.187.033-.19-.241-.2-.241-.2.049-.115.13-.111.13-.111.285-.071.414.251.414.251a.616.616,0,0,1-.064.7.074.074,0,0,1-.094.02,2.566,2.566,0,0,1-.392-.238l-.023-.014h-.094a.876.876,0,0,0-.3.064c.111.116.47.417.47.417-.27.21-.425.064-.425.064a.56.56,0,0,1-.078-.47l-.03.013c-.124.055-.248.105-.375.157.128.221.328.554.328.554-.314.114-.376-.3-.39-.528l-.184.069a.336.336,0,0,1,.017.089,1.255,1.255,0,0,0,.23.5.4.4,0,0,0-.359.1.383.383,0,0,0-.129.347.157.157,0,0,0,.157.157.157.157,0,0,0,.157-.157.157.157,0,0,0-.157-.157c.071-.171.234-.035.234-.035.238.216-.138.459-.138.459-.268.179-.524-.157-.524-.157a2.031,2.031,0,0,0,.326-1.07l-.293.1a.682.682,0,0,1-.182.712c-.091-.061-.1-.3-.1-.3-.028-.107-.06-.2-.093-.295-.086.024-.169.045-.257.066a3.8,3.8,0,0,1,.136.7.408.408,0,0,1-.2.075c-.221.019-.107-.107-.107-.107.11-.093.086-.157.086-.157-.066-.157-.314-.011-.314-.011-.323.179-.227.369-.227.369.041.118.367.232.367.232a.84.84,0,0,1-.555.071.226.226,0,0,0-.166-.194h-.023a.209.209,0,0,0-.21.085.316.316,0,0,0-.039.071l-.2-.042c-.138-.02-.218-.417-.26-.764l-.157.019c.052.372.121.7.121.7a1.681,1.681,0,0,1-.361-.2.817.817,0,0,0-.627-.146.392.392,0,0,0-.322.386.392.392,0,0,0,.391.39.392.392,0,0,0,.392-.379c.136.066.265.144.265.144a1.49,1.49,0,0,0,.77.26.279.279,0,0,0,.278.229.273.273,0,0,0,.246-.147,1.383,1.383,0,0,0,1.022-.356c.08-.1.1-.042.1-.042.273.4.8.157.8.157.1-.052.124.017.124.017a.2.2,0,0,0,.273.08c.212-.107.086-.24.086-.24-.069-.074.017-.071.017-.071.248.036.3-.108.3-.108.052-.113-.128-.212-.128-.212-.049-.063.047-.111.047-.111.149-.085.124-.171.124-.171.187,0,.172-.082.172-.082,0-.075-.227-.071-.227-.071-.183-.019-.146-.113-.146-.113a3.7,3.7,0,0,0,.684-.132,3.415,3.415,0,0,0,1.5.608.6.6,0,0,1-.017.229h-.011a.144.144,0,0,0-.1.041.144.144,0,0,0-.044.1.144.144,0,0,0,.143.141.213.213,0,0,0,.041-.008c.287-.075.314-.5.314-.5a1.776,1.776,0,0,0,1.372-.536c.082-.071.121-.049.136-.027h0a.224.224,0,0,0,.177.086.232.232,0,0,0,.193-.1.361.361,0,0,0,.042-.13h0a.231.231,0,0,0-.049-.157" transform="translate(-658.057 188.321)"/>
          <path id="Trazado_2249" data-name="Trazado 2249" class="cls-1" d="M669.205-167.629a.186.186,0,0,0,.093-.129.356.356,0,0,0-.157-.326h-.585a.362.362,0,0,0-.157.326.2.2,0,0,0,.094.129s-.207.088-.21.229c0,0-.024.107.157.254a1.052,1.052,0,0,1,.172.259s.011.157.23.157.227-.157.227-.157a1.1,1.1,0,0,1,.171-.259c.183-.147.157-.254.157-.254,0-.143-.21-.229-.21-.229" transform="translate(-655.679 184.644)"/>
        </g>
      </g>
      <path id="Trazado_2250" data-name="Trazado 2250" class="cls-1" d="M674.688-169.49l.107-.013-.068-.127Z" transform="translate(-659.637 185.6)"/>
      <path id="Trazado_2251" data-name="Trazado 2251" class="cls-1" d="M665.211-169.455l.107.011-.041-.136Z" transform="translate(-653.77 185.572)"/>
      <g id="Grupo_843" data-name="Grupo 843">
        <g id="Grupo_842" data-name="Grupo 842" class="cls-2">
          <path id="Trazado_2252" data-name="Trazado 2252" class="cls-1" d="M664.039-170.033h-.009l-.031.157a.256.256,0,0,0,.075,0,.047.047,0,0,0,.034-.022.112.112,0,0,0,.019-.049.086.086,0,0,0-.014-.067.107.107,0,0,0-.072-.027" transform="translate(-653.018 185.849)"/>
          <path id="Trazado_2253" data-name="Trazado 2253" class="cls-1" d="M667.995-169.7a.1.1,0,0,0-.085.041.252.252,0,0,0-.031.136.3.3,0,0,0,.021.147.089.089,0,0,0,.08.049.094.094,0,0,0,.085-.036.3.3,0,0,0,.036-.144.315.315,0,0,0-.022-.141.094.094,0,0,0-.083-.052" transform="translate(-655.42 185.643)"/>
          <path id="Trazado_2254" data-name="Trazado 2254" class="cls-1" d="M671.571-169.7a.086.086,0,0,0-.082.045.263.263,0,0,0-.022.138.29.29,0,0,0,.034.146.085.085,0,0,0,.082.041.094.094,0,0,0,.083-.044.25.25,0,0,0,.024-.143.289.289,0,0,0-.034-.141.089.089,0,0,0-.085-.041" transform="translate(-657.643 185.645)"/>
        </g>
      </g>
      <path id="Trazado_2255" data-name="Trazado 2255" class="cls-1" d="M662.03-169.914l.1.022-.028-.14Z" transform="translate(-651.799 185.85)"/>
      <g id="Grupo_845" data-name="Grupo 845">
        <g id="Grupo_844" data-name="Grupo 844" class="cls-2">
          <path id="Trazado_2256" data-name="Trazado 2256" class="cls-1" d="M656.517-171.861l-.06.157.022.008a.076.076,0,0,0,.071,0,.091.091,0,0,0,.037-.052.09.09,0,0,0,.008-.055.06.06,0,0,0-.022-.036.235.235,0,0,0-.056-.028" transform="translate(-648.348 186.981)"/>
          <path id="Trazado_2257" data-name="Trazado 2257" class="cls-1" d="M657.68-171.408a.1.1,0,0,0-.093.017.282.282,0,0,0-.067.124.271.271,0,0,0-.017.149.1.1,0,0,0,.063.067.1.1,0,0,0,.094-.017.281.281,0,0,0,.072-.127.325.325,0,0,0,.014-.143.1.1,0,0,0-.067-.071" transform="translate(-648.993 186.704)"/>
          <path id="Trazado_2258" data-name="Trazado 2258" class="cls-1" d="M659.191-171.009h-.02l-.042.157a.23.23,0,0,0,.075.013.076.076,0,0,0,.038-.017.105.105,0,0,0,.022-.047.073.073,0,0,0,0-.069.12.12,0,0,0-.066-.038" transform="translate(-650.003 186.457)"/>
          <path id="Trazado_2259" data-name="Trazado 2259" class="cls-1" d="M680.381-170.99a.124.124,0,0,0-.078,0h-.017l.044.157a.221.221,0,0,0,.069-.027.072.072,0,0,0,.023-.033.1.1,0,0,0,0-.053.088.088,0,0,0-.039-.056" transform="translate(-663.103 186.445)"/>
        </g>
      </g>
      <path id="Trazado_2260" data-name="Trazado 2260" class="cls-1" d="M682.892-171.348l.1-.039-.1-.1Z" transform="translate(-664.716 186.746)"/>
      <g id="Grupo_847" data-name="Grupo 847">
        <g id="Grupo_846" data-name="Grupo 846" class="cls-2">
          <path id="Trazado_2261" data-name="Trazado 2261" class="cls-1" d="M665.081-171.978l-.014-.034a.1.1,0,0,0,.033-.017.02.02,0,0,0,0-.017l-.014-.016v-.009l-.024-.025-.127.045v.024a.082.082,0,0,0,0,.035.02.02,0,0,0,.017.019.113.113,0,0,0,.036-.008l.011.035-.136.052-.011-.035c.025-.009.039-.041.039-.091v-.367l.035-.013.251.268a.132.132,0,0,0,.057.045h.033l.013.031Zm-.66.226-.009-.027.119-.433-.067.022a.253.253,0,0,0-.082.042.115.115,0,0,0-.016.072l-.035.014-.03-.116.354-.113v.027l-.121.433.1-.034a.23.23,0,0,0,.06-.025.112.112,0,0,0,.025-.039.177.177,0,0,0,0-.061l.035-.011.034.127Zm-.207.063a.736.736,0,0,1-.1-.093l-.052-.049a.044.044,0,0,0-.024-.009.139.139,0,0,0-.047.009l.03.1a.047.047,0,0,0,.021.038.052.052,0,0,0,.044,0h.009l.011.036-.23.063-.009-.035h.009a.053.053,0,0,0,.037-.024.068.068,0,0,0,0-.042l-.069-.253a.055.055,0,0,0-.022-.038h-.053l-.011-.036.169-.045.039-.013.083-.019a.179.179,0,0,1,.057,0,.118.118,0,0,1,.052.028.118.118,0,0,1,.028.047.108.108,0,0,1-.058.127.435.435,0,0,1,.1.071.458.458,0,0,0,.072.058.064.064,0,0,0,.039,0l.009.035Zm-.819.207-.009-.035h.009a.047.047,0,0,0,.039-.022c.006-.009,0-.024,0-.044l-.058-.252a.044.044,0,0,0-.02-.038.063.063,0,0,0-.044,0H663.3v-.036l.365-.085.033.11-.034.008a.469.469,0,0,0-.033-.041.061.061,0,0,0-.031-.017.113.113,0,0,0-.041,0l-.082.017.036.149.039-.008a.064.064,0,0,0,.036-.02.072.072,0,0,0,0-.044l.036-.011.034.147h-.034a.053.053,0,0,0-.017-.033.045.045,0,0,0-.042,0l-.042.009.027.107a.09.09,0,0,0,.013.038.04.04,0,0,0,.022.013.157.157,0,0,0,.049,0,.174.174,0,0,0,.056-.024.119.119,0,0,0,.028-.045.206.206,0,0,0,.009-.061l.034-.009.03.143Zm-.2-.3.028.143a.3.3,0,0,1,.008.077.116.116,0,0,1-.016.061.135.135,0,0,1-.052.055.205.205,0,0,1-.085.036.2.2,0,0,1-.091,0,.134.134,0,0,1-.07-.03.157.157,0,0,1-.041-.049.337.337,0,0,1-.02-.067l-.033-.173a.064.064,0,0,0-.019-.041.067.067,0,0,0-.047,0l-.009-.035.23-.047v.038h0a.063.063,0,0,0-.041.019.054.054,0,0,0,0,.044l.031.171a.31.31,0,0,0,.024.071.081.081,0,0,0,.042.039.083.083,0,0,0,.066,0,.107.107,0,0,0,.064-.031.1.1,0,0,0,.025-.057.317.317,0,0,0-.008-.083l-.027-.146a.058.058,0,0,0-.025-.047.058.058,0,0,0-.053-.006v-.036l.157-.031.008.035a.066.066,0,0,0-.028.013.044.044,0,0,0-.017.027.19.19,0,0,0,0,.041m-.511.107a.187.187,0,0,0-.027-.047.064.064,0,0,0-.031-.019.14.14,0,0,0-.041,0l-.07.013.024.157h.036a.038.038,0,0,0,.033-.017.066.066,0,0,0,0-.045h.034l.025.149-.036.008a.048.048,0,0,0-.019-.044.037.037,0,0,0-.036,0h-.036l.02.118a.068.068,0,0,0,.017.039.056.056,0,0,0,.045,0h.009v.036l-.235.038v-.036h0c.025,0,.038-.009.042-.019a.067.067,0,0,0,0-.042l-.041-.26a.089.089,0,0,0-.016-.038.086.086,0,0,0-.046,0h0v-.036l.364-.056.022.116Zm-.757.433v-.033c.02,0,.033,0,.037-.013a.022.022,0,0,0,0-.014.069.069,0,0,0,0-.019v-.011l-.016-.03-.136.014v.022a.062.062,0,0,0,0,.033.021.021,0,0,0,.013.02.058.058,0,0,0,.035,0v.035l-.144.019v-.036c.027,0,.047-.03.061-.078l.1-.356h.038l.177.323a.156.156,0,0,0,.044.056.067.067,0,0,0,.033,0v.035Zm-.673.067v-.038h0a.05.05,0,0,0,.041-.014.058.058,0,0,0,0-.044l-.022-.259a.06.06,0,0,0-.014-.041.064.064,0,0,0-.044-.009h0v-.038l.235-.02v.036h-.009a.045.045,0,0,0-.041.016.055.055,0,0,0,0,.044l.02.248v.039a.032.032,0,0,0,.019.013.1.1,0,0,0,.049,0,.111.111,0,0,0,.085-.036.165.165,0,0,0,.033-.08h.034l.009.146Zm-.375-.036a.243.243,0,0,1-.176.075.3.3,0,0,1-.139-.027.2.2,0,0,1-.088-.085.29.29,0,0,1-.03-.11.233.233,0,0,1,.03-.118.2.2,0,0,1,.086-.086.269.269,0,0,1,.119-.033.235.235,0,0,1,.187.06.224.224,0,0,1,.072.157.212.212,0,0,1-.06.157m-.734-.323a.133.133,0,0,0-.031,0,.067.067,0,0,0-.019.027.124.124,0,0,0,0,.041v.337h-.042l-.284-.323v.2c0,.033,0,.055.016.064a.069.069,0,0,0,.045.014v.035h-.157v-.035a.073.073,0,0,0,.036-.009.067.067,0,0,0,.021-.025.236.236,0,0,0,0-.045v-.223c0-.045-.02-.067-.063-.067v-.038h.149l.24.27v-.157c0-.047-.019-.072-.06-.072v-.036h.157Zm-.646.342a.247.247,0,0,1-.182.058.3.3,0,0,1-.138-.038.207.207,0,0,1-.08-.092.223.223,0,0,1-.02-.108.2.2,0,0,1,.036-.116.2.2,0,0,1,.092-.082.292.292,0,0,1,.122-.022.25.25,0,0,1,.181.075.226.226,0,0,1,.061.168.227.227,0,0,1-.072.157m-.524-.376-.279.353.1.008a.2.2,0,0,0,.063,0,.118.118,0,0,0,.038-.025.183.183,0,0,0,.031-.055h.037l-.019.132-.4-.03v-.028l.274-.354h-.072a.21.21,0,0,0-.091,0,.144.144,0,0,0-.044.063h-.033l.014-.116.37.027Zm-.47.376-.218-.02v-.036a.068.068,0,0,0,.036,0,.017.017,0,0,0,.009-.014.055.055,0,0,0,0-.022v-.009l-.009-.033-.135-.014-.013.02a.08.08,0,0,0-.011.033.034.034,0,0,0,.008.023.08.08,0,0,0,.036.009v.038l-.144-.016v-.036c.03,0,.055-.019.077-.064l.169-.328h.036l.105.356a.128.128,0,0,0,.03.063.055.055,0,0,0,.033.014Zm-.485-.049-.136-.017a.7.7,0,0,1-.053-.124.481.481,0,0,0-.03-.063.037.037,0,0,0-.02-.017.127.127,0,0,0-.045-.013l-.011.1v.042c0,.008.019.014.039.019h.008v.035l-.237-.028v-.038h0a.055.055,0,0,0,.044,0,.06.06,0,0,0,.017-.039l.034-.259a.086.086,0,0,0,0-.042c0-.009-.017-.016-.041-.019h-.009v-.036l.176.024h.039a.532.532,0,0,1,.085.016.127.127,0,0,1,.052.027.108.108,0,0,1,.036.044.118.118,0,0,1,0,.058.113.113,0,0,1-.1.1.336.336,0,0,1,.06.1.458.458,0,0,0,.045.082.071.071,0,0,0,.036.016Zm-.743-.1-.216-.039.008-.038a.128.128,0,0,0,.036,0s.009,0,.009-.014a.046.046,0,0,0,0-.022v-.042l-.133-.027-.012.024a.06.06,0,0,0-.016.028.022.022,0,0,0,.008.024.077.077,0,0,0,.033.011v.036l-.144-.025v-.036c.027,0,.053-.014.081-.058l.195-.314h.039l.075.361a.136.136,0,0,0,.025.067.046.046,0,0,0,.03.014Zm-.486-.088-.391-.085v-.033h.053a.07.07,0,0,0,.017-.039l.055-.256a.066.066,0,0,0,0-.044c0-.009-.017-.014-.039-.02h0v-.033l.23.049-.008.033h-.053a.063.063,0,0,0-.017.039l-.052.246a.215.215,0,0,0,0,.038.033.033,0,0,0,.014.017.085.085,0,0,0,.047.019.108.108,0,0,0,.089-.013.134.134,0,0,0,.055-.067l.036.008Zm-.72-.289a.28.28,0,0,0,.033.085.053.053,0,0,0,.033.02l-.013.036-.13-.038a.524.524,0,0,1-.041-.125.557.557,0,0,0-.017-.067.07.07,0,0,0-.016-.022.179.179,0,0,0-.046-.016l-.03.1a.079.079,0,0,0,0,.042.055.055,0,0,0,.039.024h0v.035l-.231-.06.013-.036h.049a.054.054,0,0,0,.022-.038l.067-.251a.061.061,0,0,0,0-.045c0-.009-.017-.014-.038-.022h-.008l.008-.035.169.047.039.009.083.023a.206.206,0,0,1,.047.033.136.136,0,0,1,.03.052.112.112,0,0,1,0,.056.111.111,0,0,1-.116.082.417.417,0,0,1,.049.111m-.447-.22a.238.238,0,0,1-.11.133.254.254,0,0,1-.193.01.284.284,0,0,1-.119-.074.206.206,0,0,1-.055-.11.262.262,0,0,1,.009-.111.2.2,0,0,1,.064-.1.2.2,0,0,1,.11-.053.265.265,0,0,1,.125.011.248.248,0,0,1,.157.119.232.232,0,0,1,.014.177m-.51-.271a.113.113,0,0,1-.049.061.13.13,0,0,1-.078.014.4.4,0,0,1-.1-.028l-.031-.008-.038.1a.11.11,0,0,0,0,.042c0,.008.016.019.033.027h.009l-.009.033-.224-.082.01-.035h.008a.055.055,0,0,0,.045,0,.087.087,0,0,0,.023-.038l.091-.246a.089.089,0,0,0,0-.042.064.064,0,0,0-.039-.025h-.008l.012-.031.169.056a.977.977,0,0,1,.094.038.173.173,0,0,1,.057.041.128.128,0,0,1,.03.058.107.107,0,0,1,0,.06m4.212.491h.13l-.157.1h-.027Zm6.019-.925a.249.249,0,0,0-.157-.045.323.323,0,0,0-.1.017,14.369,14.369,0,0,1-5.158.88,14.388,14.388,0,0,1-5.162-.88.314.314,0,0,0-.1-.017.247.247,0,0,0-.157.046l-.627.5h0a1.059,1.059,0,0,1,.4.1,14.312,14.312,0,0,0,5.645,1.038,14.28,14.28,0,0,0,5.645-1.038,1.1,1.1,0,0,1,.4-.1h0Z" transform="translate(-646.756 187.495)"/>
          <path id="Trazado_2262" data-name="Trazado 2262" class="cls-1" d="M663.814-188.936a2.532,2.532,0,0,1-.246-.147l-.23.147Z" transform="translate(-652.608 197.645)"/>
          <path id="Trazado_2263" data-name="Trazado 2263" class="cls-1" d="M667.16-189.133c-.042.019-.129.053-.2.091l-.028.014h1.992l-.027-.011a1.992,1.992,0,0,0-.2-.093l-.024-.011a2.1,2.1,0,0,0-.26-.088h-.972a2.042,2.042,0,0,0-.262.088l-.023.011" transform="translate(-654.836 197.737)"/>
          <path id="Trazado_2264" data-name="Trazado 2264" class="cls-1" d="M675.041-189.076h0a1.576,1.576,0,0,1-.207.141h.419a1.8,1.8,0,0,1-.2-.14h-.009" transform="translate(-659.722 197.641)"/>
          <path id="Trazado_2265" data-name="Trazado 2265" class="cls-1" d="M663.071-180.311v-1.03a1.28,1.28,0,0,0,0,1.03" transform="translate(-652.375 192.851)"/>
        </g>
      </g>
      <path id="Trazado_2266" data-name="Trazado 2266" class="cls-1" d="M666.443-184.171l-1.908-.613h1.488Z" transform="translate(-653.349 194.983)"/>
      <g id="Grupo_849" data-name="Grupo 849">
        <g id="Grupo_848" data-name="Grupo 848" class="cls-2">
          <path id="Trazado_2267" data-name="Trazado 2267" class="cls-1" d="M665.393-188.341h-2.539a.1.1,0,0,0,.03.067c.014.016.05.063.1.133h2.352Z" transform="translate(-652.31 197.185)"/>
          <path id="Trazado_2268" data-name="Trazado 2268" class="cls-1" d="M665.646-187.451h-2.219c.034.061.072.129.11.2h2.043Z" transform="translate(-652.665 196.636)"/>
          <path id="Trazado_2269" data-name="Trazado 2269" class="cls-1" d="M665.819-186.561h-1.948a2.116,2.116,0,0,1,.069.2h1.817Z" transform="translate(-652.939 196.084)"/>
          <path id="Trazado_2270" data-name="Trazado 2270" class="cls-1" d="M665.882-185.666H664.14a1.763,1.763,0,0,1,.028.205h1.653Z" transform="translate(-653.105 195.53)"/>
          <path id="Trazado_2271" data-name="Trazado 2271" class="cls-1" d="M664.745-183.886h-.6a1.815,1.815,0,0,1-.042.2h.928Z" transform="translate(-653.081 194.427)"/>
          <path id="Trazado_2272" data-name="Trazado 2272" class="cls-1" d="M664.641-184.57l-.289-.2h-.118v.017a.826.826,0,0,1,0,.187Z" transform="translate(-653.164 194.978)"/>
          <path id="Trazado_2273" data-name="Trazado 2273" class="cls-1" d="M669.556-188.389l-.009-.03v2l1.91-.613h-1.49l-.041-.13h1.68a1.562,1.562,0,0,1,.036-.205h-1.777l-.041-.136h1.857c.022-.071.049-.138.075-.2h-2l-.041-.135h2.1c.038-.075.075-.143.113-.2h-2.272l-.041-.133h2.4a1.754,1.754,0,0,1,.136-.179.047.047,0,0,0,.014-.027Z" transform="translate(-656.453 197.235)"/>
          <path id="Trazado_2274" data-name="Trazado 2274" class="cls-1" d="M670.75-180.316v1.529a1.091,1.091,0,0,1,.2-.107v-1.269Z" transform="translate(-657.198 192.217)"/>
          <path id="Trazado_2275" data-name="Trazado 2275" class="cls-1" d="M669.841-181.008v2.213l.077-.125.009-.019a.742.742,0,0,1,.119-.157v-1.753Z" transform="translate(-656.635 192.645)"/>
          <path id="Trazado_2276" data-name="Trazado 2276" class="cls-1" d="M668.95-181.03v1.778a.752.752,0,0,1,.165.2l.009.017c0,.013.017.027.028.047v-2.2Z" transform="translate(-656.083 192.757)"/>
          <path id="Trazado_2277" data-name="Trazado 2277" class="cls-1" d="M668.062-180.354v1.325a1.133,1.133,0,0,1,.2.1V-180.5Z" transform="translate(-655.534 192.336)"/>
          <path id="Trazado_2278" data-name="Trazado 2278" class="cls-1" d="M671.638-178.52a1.729,1.729,0,0,1,.205-.047v-.916l-.205-.157Z" transform="translate(-657.749 191.798)"/>
          <path id="Trazado_2279" data-name="Trazado 2279" class="cls-1" d="M667.169-178.688a1.831,1.831,0,0,1,.2.042v-1.179l-.2.157Z" transform="translate(-654.981 191.917)"/>
          <path id="Trazado_2280" data-name="Trazado 2280" class="cls-1" d="M664.831-182.9h.135v.6l-.135.4Zm1.041-.273-.7.254-.26-.185h-1.162a2.153,2.153,0,0,1-.075.2h0l-.072.157v1.51a1.025,1.025,0,0,0,.2.187V-182.9h.133v1.937a1.516,1.516,0,0,0,.2.091V-182.9h.138v2.067a1.543,1.543,0,0,0,.2.036v-2.1h.136v2.115h.205v-.866l-.118.091Z" transform="translate(-652.778 193.986)"/>
          <path id="Trazado_2281" data-name="Trazado 2281" class="cls-1" d="M670.684-181.625l-.135-.4v-.878h.135Zm1.066-1.278h0a2.118,2.118,0,0,1-.078-.2h-1.167l-.262.187-.508-.187-.188-.069,1.137,1.6v.8c.08,0,.138-.009.157-.009h.044V-182.9h.138v2.108a1.526,1.526,0,0,0,.2-.03V-182.9h.135v2.039a1.479,1.479,0,0,0,.2-.082V-182.9h.135v1.882a1.144,1.144,0,0,0,.188-.157.1.1,0,0,0,.016-.022v-1.4a2.872,2.872,0,0,1-.157-.314" transform="translate(-656.453 193.988)"/>
          <path id="Trazado_2282" data-name="Trazado 2282" class="cls-1" d="M672.555-183.682h.941a1.727,1.727,0,0,1-.039-.2h-.616Z" transform="translate(-658.316 194.427)"/>
          <path id="Trazado_2283" data-name="Trazado 2283" class="cls-1" d="M674.082-184.773l-.287.2h.419a.884.884,0,0,1,0-.143c0-.022,0-.042,0-.063Z" transform="translate(-659.084 194.977)"/>
          <path id="Trazado_2284" data-name="Trazado 2284" class="cls-1" d="M666.361-201.279h-.009a.014.014,0,0,1,0-.009.894.894,0,0,1,.008-.1.706.706,0,0,0-.013-.246c-.1-.417-.439-.561-.687-.314a.726.726,0,0,1,.867-.314.593.593,0,0,1,.345.351.509.509,0,0,1,0,.417h-.009c-.009,0,0,0,0-.009a.771.771,0,0,0-.064-.378.377.377,0,0,0-.2-.213,1.347,1.347,0,0,1,.132.221.418.418,0,0,1,.041.174.707.707,0,0,1-.172.47h-.009v-.011a.725.725,0,0,0,.027-.6.484.484,0,0,0-.03-.056.435.435,0,0,0-.372-.265.617.617,0,0,1,.21.263.557.557,0,0,1-.045.613m-2.172-2.106a.568.568,0,0,1,.442.417c.012.213-.1.278-.127.267s-.009-.017-.009-.025a.532.532,0,0,0-.072-.5.9.9,0,0,0-.234-.157m-.23,3.69c-.082-.141.13-.314.177-.456.257-.039-.066.414-.177.456m.049.381c-.056-.025-.058-.136-.049-.187.02-.135.177-.2.249-.274.017,0,.008.216-.2.461m.049-1.579c.187.077-.091.452-.114.521.044-.019.194-.179.254-.132.1.08-.2.47-.274.489-.414-.538.115-.7.135-.878m-.314,1.734c-.066-.017-.028-.135-.028-.187a2.94,2.94,0,0,0-.078-.814,4.733,4.733,0,0,0-.389-.993,3.014,3.014,0,0,1,.543,1.174,1.46,1.46,0,0,1-.045.82m-.23-.171c-.2,0-.218-.132-.254-.279.085.069.207.157.2,0-.074-.064-.51-.177-.4-.367.072-.105.314.314.376.174.039-.281-.841-.37-.816-.612,0-.132.693.334.792.325-.009-.149-1.026-.563-1.336-1.117-.022-.041-.035-.075-.028-.08s.008,0,.011,0a2.388,2.388,0,0,0,1.309.877c.212.06.314.737.143,1.073m-2.2-1.411c.1-.271.157-.681-.278-.784a.922.922,0,0,0-.784.306.712.712,0,0,1,.875-.438c-.091-.257-.42-.364-.8-.157a1.12,1.12,0,0,0-.224.157.684.684,0,0,1,.409-.4.728.728,0,0,1,.737.157.817.817,0,0,1,.275.563.817.817,0,0,1-.2.592m-.834.234c.237-.061.441-.187.381-.408a.174.174,0,0,0-.157-.122.326.326,0,0,0-.285.184.314.314,0,0,1,.105-.237.314.314,0,0,1,.248-.077.348.348,0,0,1,.281.229c.064.328-.235.463-.569.434m5.959.028a.8.8,0,0,0,.166-.008.8.8,0,0,0,.487-.383.8.8,0,0,0,.067-.616c0,.009,0,0-.01,0a1.114,1.114,0,0,1-.052.136c-.039.078-.091.13-.1.124a.017.017,0,0,1,0-.019.756.756,0,0,0,.064-.671.719.719,0,0,0-.246-.34,1.254,1.254,0,0,0-1.309,0,1.171,1.171,0,0,0-.453-.276,1.236,1.236,0,0,1-.45.591.58.58,0,0,1-.191.1s-.042-.009,0-.044a.921.921,0,0,0,.511-.784h0a1.129,1.129,0,0,0-.248-.677,1.3,1.3,0,0,0-1.526-.064.785.785,0,0,0-.2.394.457.457,0,0,1,.314-.29c.168-.053.492-.017.541.179-.286-.293-.808-.077-.88.423h0c0,.033-.025.036-.025.036h0c-.014,0-.033,0-.025-.226a1.381,1.381,0,0,1,.111-.456,1.11,1.11,0,0,0-1,.215,1.11,1.11,0,0,0-.4.936.668.668,0,0,0,.183.4c.024.027,0,.039,0,.039a.411.411,0,0,1-.146-.108.945.945,0,0,1-.149-.314,1.86,1.86,0,0,0-.88-.127,1.15,1.15,0,0,0-.655.375,1.574,1.574,0,0,0-.144.232,1.019,1.019,0,0,0-.116.569,1.051,1.051,0,0,0,.489.834,1.745,1.745,0,0,0,1.016.157.762.762,0,0,0,.288-.119l.039-.028.017-.013a.707.707,0,0,0,.227-.59s0-.014.013-.014.038.067.038.157a.946.946,0,0,1-.066.314.336.336,0,0,0,0,.05.227.227,0,0,0,.041.1.375.375,0,0,0,.384.049h.016a.292.292,0,0,1-.262.116.409.409,0,0,1-.1-.011.7.7,0,0,0,.627.254s.016,0,.016.011a.233.233,0,0,1-.157.041.9.9,0,0,1-.387-.088,1.1,1.1,0,0,0,.736.353c.011.042-.287.009-.375-.02.176.693.547.613.554.66a.214.214,0,0,0-.127.132.214.214,0,0,0,.021.182,2.391,2.391,0,0,1,.773-.157,2.431,2.431,0,0,1,.792.157.181.181,0,0,0,.025-.179c-.061-.173-.593-.314-1.1-.157a.272.272,0,0,0-.063.033h0a.026.026,0,0,1,0-.011h0a.587.587,0,0,1,.066-.042,1.226,1.226,0,0,1,.92-.034h0a.257.257,0,0,0,.258-.052.257.257,0,0,0,.078-.251.256.256,0,0,0,.2-.061.256.256,0,0,0,.088-.185.845.845,0,0,1-.082.041h0a.157.157,0,0,1-.116.022h0a.523.523,0,0,0,.067-.033.765.765,0,0,0,.4-.6.24.24,0,0,1-.2.11c-.047,0-.074,0-.075-.014a.015.015,0,0,1,0-.009.205.205,0,0,0,.1-.039.806.806,0,0,0,.242-.314,1.591,1.591,0,0,1-.35-.644.313.313,0,0,0-.251-.215h-.052l-.046.008h-.009c.14-.116.292.009.381.061.016-.257.107-.323.115-.314s0,.009,0,.011a1.06,1.06,0,0,0,.448,1.184,1.4,1.4,0,0,0,1.474-.149h0a.941.941,0,0,1-.24.039c-.088,0-.157-.019-.157-.036s.011-.013.016-.013" transform="translate(-650.338 206.652)"/>
          <path id="Trazado_2285" data-name="Trazado 2285" class="cls-1" d="M661.372-189.289a3.82,3.82,0,0,1-.147.627c.4-3.607.18-4.5.111-4.483s-.119.444-.314.314.448-.921.191-1.36c-.06-.069-.113.1-.215.069-.265-.089.146-.773.066-.845s-.257-.093-.262-.348c0-.114.075-.209-.02-.3-.074-.072-.06.066-.136.033-.124-.133-.009-.282-.07-.381-.036-.025-.121.08-.188.027s.041-.176-.05-.218a.3.3,0,0,0-.254.336c.017.1.135.166.127.278s-.125.213-.147.263c-.172.389.119.47.077.607-.017.066-.141.1-.221.072-.1-.044-.128-.392-.094-.535s.267-.361.267-.45-.11-.215-.122-.35a.314.314,0,0,1,.08-.275.314.314,0,0,1,.27-.1.594.594,0,0,1,.306.243c.034.038.078.071.107.107a3.811,3.811,0,0,1,.552,1.255,12.612,12.612,0,0,1,.1,5.413m-1.781-5.122a.894.894,0,0,1-.3.157.416.416,0,0,1-.442-.136c.14-.044.26.052.45.03a1.73,1.73,0,0,0,.179-.035c.057-.019.1-.074.157-.074.024.024-.022.05-.042.066m-1.993,5.959h0a.218.218,0,0,0,0,.028.925.925,0,0,1-.325-.157.263.263,0,0,0-.208-.046h0c-.089.038-.129.127-.177.173a.35.35,0,0,1-.014-.05h0v-.091a.068.068,0,0,0,0-.017.193.193,0,0,1,.019-.039l.016-.022.014-.013a.085.085,0,0,1,.028-.019h.009a.314.314,0,0,1,.168-.03h0a.386.386,0,0,1,.227.088.556.556,0,0,0,.314.089.7.7,0,0,0-.064.114m-8.2-.47a.02.02,0,0,1-.009.02l-.008.008-.009.011a.236.236,0,0,1-.078.013.975.975,0,0,1-.144-.014.074.074,0,0,0,.039.077h0c.013.009.027.014.038.022l.061.028c0,.049-.082.08-.122.08-.086,0-.144-.1-.171-.157a.094.094,0,0,0-.025-.017l-.019-.014a.728.728,0,0,0-.3-.063c.022-.2.563-.061.576-.058a.609.609,0,0,1,.172.042.033.033,0,0,1,0,.013m8.408-1.35a.854.854,0,0,1-.731-.372,1.553,1.553,0,0,0,.313.216.748.748,0,0,0,.657-.082.034.034,0,0,1,.036,0c.022.022,0,.18-.273.235m-1.614-.314h0c0,.011-.016.019-.022.03l-.024.022h0a.119.119,0,0,1-.025.014h-.071l-.023-.009h-.013a.13.13,0,0,1-.027-.014l-.016-.009-.03-.024-.013-.011s-.058-.1.03-.108l.034.033h.009a.071.071,0,0,0,.02.012h0a.028.028,0,0,0,.024,0h0a.03.03,0,0,0,.016-.013h0l.009-.017v-.008a.088.088,0,0,0,.012-.036v-.013a.185.185,0,0,1,0-.027.076.076,0,0,1,0-.023.108.108,0,0,1,0-.025,1.348,1.348,0,0,1,.049-.436.021.021,0,0,1,.011-.014h.019a.037.037,0,0,1,.025,0h0l.008.011a.022.022,0,0,0,0,.014s0,.011,0,.019a.051.051,0,0,0,0,.019v.227h0a.468.468,0,0,0,.009.111.47.47,0,0,1-.055.273m-.627.527a1.391,1.391,0,0,1-1.237.572c-.08,0-.784.013-1.018.459l-.014.019c-.028.05-.118.191-.157.268a.044.044,0,0,1-.039.025.042.042,0,0,1-.041-.025c-.038-.077-.129-.219-.157-.268l-.014-.019c-.238-.447-.941-.459-1.018-.459a1.393,1.393,0,0,1-1.242-.574,1.385,1.385,0,0,1-.022-1.367,1.847,1.847,0,0,0,.314-1.12,2.078,2.078,0,0,0-.471-1.255.166.166,0,0,1-.05-.135.141.141,0,0,1,.072-.107c.1-.066.3-.2.394-.251l.038-.027a.081.081,0,0,1,.033-.011c.025,0,.047.017.088.047a.784.784,0,0,0,.518.188.977.977,0,0,0,.157-.011,1.753,1.753,0,0,0,.383-.143,1.615,1.615,0,0,1,.207-.1l.02-.009a2.167,2.167,0,0,1,.8-.171,2.171,2.171,0,0,1,.8.171l.022.009c.039.019.132.06.207.1a1.832,1.832,0,0,0,.381.143,1.008,1.008,0,0,0,.157.011.793.793,0,0,0,.519-.188c.039-.03.061-.047.089-.047a.068.068,0,0,1,.036.014l.041.027c.094.056.292.184.392.252a.133.133,0,0,1,.064.1.173.173,0,0,1-.05.136,2.089,2.089,0,0,0-.471,1.247,1.864,1.864,0,0,0,.314,1.129,1.389,1.389,0,0,1-.025,1.369m-5.15-1.171a.036.036,0,0,1-.009.03.185.185,0,0,0-.024.05l-.013.022a.135.135,0,0,1-.017.03.078.078,0,0,1-.014.02.365.365,0,0,1-.031.041s0,.008-.011.011-.02.019-.028.028a.045.045,0,0,0-.014.011l-.044.025h0a.148.148,0,0,1-.047.016h-.066a.106.106,0,0,1-.009-.041h0c0-.055.06-.107.085-.171s.017-.1.055-.141c.056,0,.105.014.122-.039a.214.214,0,0,1-.066-.166.215.215,0,0,1,.083-.158c.157-.157,0-.5.028-.547a.509.509,0,0,1,.1.3v.035a.353.353,0,0,0,0,.045v.166q0,.017,0,.035v.205a.108.108,0,0,1,0,.031.05.05,0,0,1-.01.036c-.009.011-.009.038-.016.055a.2.2,0,0,1-.013.033.113.113,0,0,1-.009.03m5.4-.707a.419.419,0,0,1,.075,0h0a.4.4,0,0,1,.08.011.45.45,0,0,1,.093.2h0a.686.686,0,0,0,.1.221c.049.05.03.147-.089.132h-.032a.348.348,0,0,1-.215-.427.289.289,0,0,0-.092,0h0a.253.253,0,0,0-.049.013H655.7l-.023.014-.02.011c-.031.027-.044.075-.086.075a.241.241,0,0,1,.114-.187h0a.36.36,0,0,1,.135-.056m-5.481-.8c-.069.017-.083-.292-.456-.218a.553.553,0,0,1-.48-.019c.532-.3.977,0,.941.237m-1.838-2.125c-.246-.086-.53-.125-.635-.323a2.509,2.509,0,0,1,.941.157l.025.017a.89.89,0,0,1,.339.47,2.669,2.669,0,0,0-.666-.323m-.784-1.2c-.094-.008-.157-.067-.246,0a.221.221,0,0,0-.1.209.083.083,0,0,1-.048.077.083.083,0,0,1-.09-.013c-.083-.188.221-.452.3-.47.172-.063.3.044.489.072a2.091,2.091,0,0,0,.314,0c.2.017.157.165.116.188-.171.047-.265-.083-.411-.1-.1-.013-.218.045-.323.038m-.29.234c.229.086.251-.2.314-.138.078.133-.14.336-.314.138m-1.386,8.394h0c.033.027.075.05.11.082a.2.2,0,0,1,.028.031c-.019.041-.063.039-.115.016h-.012a.756.756,0,0,1-.125-.075c-.041.063.034.127.074.177,0,.022-.025.03-.052.033h0a.157.157,0,0,1-.085-.011h0c-.077-.038-.091-.157-.092-.21a.257.257,0,0,0-.13-.205c.157-.1.384.146.4.166m10.927-7.046a.513.513,0,0,1-.293.276.6.6,0,0,1-.524-.18c-.012-.031.212.107.427.091a.727.727,0,0,0,.383-.2c.009-.014.02,0,.009.013M656-195.734a.03.03,0,0,1-.033,0,.8.8,0,0,0-.651.038,1.651,1.651,0,0,0-.3.243.981.981,0,0,1,.7-.448c.273,0,.3.14.281.157m5.774,3.56a12.2,12.2,0,0,0-.378-2.7c-.149-.5-.431-1.529-1.1-1.67a.47.47,0,0,0-.386.114.471.471,0,0,0-.157.371c0,.226.157.334.091.557a1.877,1.877,0,0,0-.205.47c-.041.157.1.227.056.4-.2-.028-.314.138-.605.077a.972.972,0,0,1-.549.056l.008-.008c.3-.009.572-.105.627-.237a.61.61,0,0,0-.125-.607,1.559,1.559,0,0,1-.849.146c-.488-.028-.61.061-.677.359A.21.21,0,0,1,657.5-195a.389.389,0,0,1,.379-.284.351.351,0,0,0,.049-.2.884.884,0,0,0-.245.009.806.806,0,0,0-.635.4.447.447,0,0,0-.014.121.433.433,0,0,0,.014.1.545.545,0,0,1,.025.074c.075.157.259.251.651.27a.014.014,0,0,1,.01,0,.014.014,0,0,1,.005.01c0,.017-.08.031-.179.02a.794.794,0,0,1-.527-.188l-.03.033a.741.741,0,0,1-.439.207.593.593,0,0,1-.444-.2c-.237-.314.069-.864.064-1.068-.014-.546-.756-.3-1.027-.157a2.667,2.667,0,0,0-.8.714,2.278,2.278,0,0,0-.314.47,1.75,1.75,0,0,0,.591.171h.088a.764.764,0,0,0,.478-.149.27.27,0,0,1,.171-.064.268.268,0,0,1,.187.078c.039.031.506.4.659.508a.172.172,0,0,1,.077.118.209.209,0,0,1-.06.157,2.66,2.66,0,0,0-.422.69h0q-.035.083-.061.169c-.057.2-.1.516.18.613,0,0,.314.08.282-.428,0,0,.05.326.287.314.1,0,.193-.105.176-.323h0a2.892,2.892,0,0,1,.022-.717c0-.009,0-.017,0-.028a.666.666,0,0,1,.022.13,2.666,2.666,0,0,0,.889,2.109,1.791,1.791,0,0,1-.691-.7.627.627,0,0,0-.282.748.669.669,0,0,0,.238.337.025.025,0,0,1,.011.02c0,.02-.053.06-.141-.028h0l-.041-.045a.73.73,0,0,1-.077-.147c-.113-.1-.215-.2-.314-.306h0c-.078-.157-.036-.627-.5-.627h-.044a.59.59,0,0,0-.077.011h-.017a1.759,1.759,0,0,1-.082-.715,2.554,2.554,0,0,1,.564-1.145.111.111,0,0,0,.033-.078.072.072,0,0,0-.025-.041h0c-.157-.107-.619-.47-.671-.516h0a.169.169,0,0,0-.111-.049.157.157,0,0,0-.1.039.882.882,0,0,1-.552.177.483.483,0,0,1-.088,0h0a1.951,1.951,0,0,1-.666-.2,2.408,2.408,0,0,0-.875-.2,2.4,2.4,0,0,0-.872.2,1.96,1.96,0,0,1-.665.2h0a.646.646,0,0,1-.093,0,.874.874,0,0,1-.549-.176h0a.157.157,0,0,0-.1-.038.17.17,0,0,0-.111.049h0c-.052.042-.513.409-.669.516h0a.071.071,0,0,0-.025.041.123.123,0,0,0,.031.078,2.544,2.544,0,0,1,.566,1.145,1.21,1.21,0,0,1,0,.259c-.039-.125-.077-.237-.1-.314a.54.54,0,0,0-.069-.173h0a.71.71,0,0,0-.262-.234,2.522,2.522,0,0,1-.252-.115.875.875,0,0,1-.331-.331,1.069,1.069,0,0,0-.157-.533c.044-.022.227.114.243.444a1.927,1.927,0,0,0,.409-.933c.165-.227.627-.138.8-.107a.376.376,0,0,1,.157.05c.052.033.061.113.132.143a.53.53,0,0,0,.243,0,.6.6,0,0,1,.068.118h.069a1.77,1.77,0,0,0,.627-.187h.008l.036-.013a.6.6,0,0,0-.389-.183c-.173-.027-.267-.172-.431-.209a.684.684,0,0,0-.237-.014,4.321,4.321,0,0,1-.968-.114c-.325-.024-.337.2-.453.381a1.139,1.139,0,0,1-.157.2c-.088.088-.193.089-.3.172l-.017-.009a1.154,1.154,0,0,0-.157-.417c0-.014-.016-.027-.022-.041a1.179,1.179,0,0,0-.773-.583.436.436,0,0,1-.138-.074.069.069,0,0,1-.031-.057.069.069,0,0,1,.03-.057c.115-.063.306-.042.434-.1.314-.146.2-.409.082-.431a2.847,2.847,0,0,1-.5-.138c-.072-.047-.122-.179-.245-.224a.587.587,0,0,0-.259-.016c-.075.013-.126.067-.18.06a.459.459,0,0,1,.353-.165c-.138-.039-.091-.262-.216-.314a.414.414,0,0,0-.223.061c-.009-.069-.05-.306-.18-.384-.105-.061-.144.035-.138.094s.157.121.187.364c-.025.017-.055.036-.08.055a.471.471,0,0,0-.168-.314c-.105-.061-.143.03-.138.094s.141.11.182.314c-.039.03-.069.061-.1.089-.21-.056-.257-.205-.314-.215s-.157.017-.108.127a.5.5,0,0,0,.3.2.928.928,0,0,0-.066.072c-.245-.049-.293-.213-.35-.224s-.157.017-.108.127c.066.143.314.205.37.22a.26.26,0,0,0-.052.171c-.191-.022-.525.08-.461.3.061.044.287-.138.489-.036a.751.751,0,0,0,.4.259c.075.06.089.169.121.268a2.178,2.178,0,0,0,.3.489c.118.177.237.362.359.518a.279.279,0,0,1,.022.157,4.7,4.7,0,0,1-.726.641c-.173.157-1.805,1.4-2.01,1.946a1.121,1.121,0,0,0-.066.439.329.329,0,0,1-.324-.036c-.108-.129.111-.249.057-.419a.14.14,0,0,0-.179-.066c-.121.044-.147.287-.088.433.017.041.081.094.036.125s-.1-.038-.1-.124a.137.137,0,0,0-.048.143c.031.119.176.121.223.157,0,.053-.086.078-.141.03-.089.132.013.184.033.187.1.019.2-.071.267-.078.028.066-.02.088-.121.115.157.2.314-.14.489-.1.057.013.569.491.483.856a.436.436,0,0,1-.036.088c-.115.14-.3.248-.434.381-.267.171.257,1.245.213,1.8-.033.215.185.174.314.524a.389.389,0,0,0-.328.133l-.02.028h0a.255.255,0,0,0-.036.132.268.268,0,0,0,.079.19.268.268,0,0,0,.191.078.269.269,0,0,0,.191-.078.268.268,0,0,0,.079-.19c0-.014,0-.027,0-.039a.533.533,0,0,1,.215.047l.237.129a2.41,2.41,0,0,1-2.2.293s-.616-.2-.442-.745a.3.3,0,0,1,.111-.144.312.312,0,0,0,.125.182.3.3,0,0,0,.177.056.314.314,0,0,0,.314-.314.313.313,0,0,0-.086-.215.34.34,0,0,0-.041-.034h0a.519.519,0,0,0-.444-.045.6.6,0,0,0-.373.322.6.6,0,0,0,0,.492s-.4-.091-.552.093a.217.217,0,0,0-.049.157h0a.336.336,0,0,0,.041.13.232.232,0,0,0,.193.1.227.227,0,0,0,.18-.086h0c.017-.022.058-.042.14.027a1.78,1.78,0,0,0,1.373.536s.022.422.314.5a.213.213,0,0,0,.041.008.143.143,0,0,0,.143-.141.143.143,0,0,0-.143-.143h-.014a.613.613,0,0,1-.02-.229,3.42,3.42,0,0,0,1.5-.608,3.685,3.685,0,0,0,.685.132s.038.094-.144.113c0,0-.234,0-.229.071,0,0-.017.085.171.082,0,0-.022.086.126.173,0,0,.1.05.045.111,0,0-.177.1-.125.212,0,0,.05.144.3.108,0,0,.083,0,.014.071,0,0-.124.132.086.24a.2.2,0,0,0,.273-.08s.024-.067.124-.017c0,0,.533.243.806-.157,0,0,.017-.061.1.042a1.391,1.391,0,0,0,1.022.356.275.275,0,0,0,.246.147.281.281,0,0,0,.277-.229,1.492,1.492,0,0,0,.77-.26s.127-.078.265-.144a.39.39,0,0,0,.39.38.394.394,0,0,0,.392-.39.4.4,0,0,0-.324-.386.814.814,0,0,0-.627.147,1.679,1.679,0,0,1-.362.2s.069-.329.121-.7l-.157-.019c-.044.347-.121.743-.264.764l-.2.042a.294.294,0,0,0-.038-.071.206.206,0,0,0-.21-.085h-.022a.223.223,0,0,0-.168.194.843.843,0,0,1-.557-.071s.326-.114.365-.232c0,0,.1-.19-.226-.369,0,0-.242-.14-.314.011,0,0-.024.067.085.157,0,0,.118.124-.105.107a.414.414,0,0,1-.2-.075,3.871,3.871,0,0,1,.138-.7l-.257-.066c-.031.091-.066.19-.093.295,0,0-.012.243-.1.3a.684.684,0,0,1-.185-.712c-.1-.03-.195-.061-.292-.1a2.014,2.014,0,0,0,.326,1.069s-.257.343-.524.157c0,0-.379-.245-.138-.459,0,0,.157-.136.234.035a.157.157,0,0,0-.157.157.157.157,0,0,0,.157.157A.157.157,0,0,0,648.3-186a.381.381,0,0,0-.128-.347.392.392,0,0,0-.356-.1,1.269,1.269,0,0,0,.227-.5.318.318,0,0,1,.016-.089l-.18-.069c-.016.226-.083.643-.4.529l.332-.554c-.125-.049-.252-.1-.373-.157l-.033-.013a.566.566,0,0,1-.08.47s-.157.146-.424-.064c0,0,.358-.3.47-.417a.872.872,0,0,0-.293-.064h-.108l-.02.014a2.655,2.655,0,0,1-.393.238.071.071,0,0,1-.093-.02.615.615,0,0,1-.068-.7s.133-.314.417-.251c0,0,.081,0,.129.111,0,0-.273.011-.241.2,0,0,0,.2.249.187,0,0,.34-.035.26-.447,0,0-.06-.251-.254-.251,0,0,.108-.135.03-.19,0,0-.08-.077-.263.052,0,0-.047.091-.268.042a.2.2,0,0,0-.23.052s-.039.017-.039.177c0,0,.017.063-.083.229a.793.793,0,0,0-.066.292.49.49,0,0,0-.227-.107c-.113-.118-.121-.663-.238-.928-.027-.063.055-.339.056-.627a1.6,1.6,0,0,0,1.217-1.084,2.089,2.089,0,0,0-.061-1.041c0-.014.013-.014.02,0a1.7,1.7,0,0,1,.089.215,1.979,1.979,0,0,0,.858-.1.063.063,0,0,0,.031-.013l.041-.016.1-.045a.158.158,0,0,0,.033-.017,2.412,2.412,0,0,0,1-1.044.763.763,0,0,1-.411-.221c.213.017.372.105.583.107.314,0,.519-.172.866-.132,0,.019.044.157.265.254a1.544,1.544,0,0,0,.08.519.357.357,0,0,0,.028.064s-.26.2-.191.365c.019.045.036.091.053.13a.083.083,0,0,1-.038,0c-.039-.017-.085.05-.139.141-.031.046-.168.329-.064.353a.334.334,0,0,0,.064,0,1.337,1.337,0,0,0,.191,1.024h0a1.568,1.568,0,0,0,1.386.627h.016c.1,0,.98.016,1.292.6.019.035.088.132.157.132s.147-.1.165-.132c.314-.586,1.192-.6,1.294-.6h.014a1.568,1.568,0,0,0,1.388-.627h0a1.222,1.222,0,0,0,.205-.541c.2-.107.187-.55.188-.627a.724.724,0,0,0,.412.356c-.038.209-.025.552.2.6.068,0,.126-.1.108-.174.193.554.031.894.177.941.187,0,.2-.326.212-.336a.611.611,0,0,1,.082.279c0,.171-.024.343.055.372.257.042.135-.714.336-.637-.05.334,0,.522.138.577,0,.157-.022.3-.086.3-.37.083-.707-.21-1.033-.122l-.033-.02a1.3,1.3,0,0,0-1.008-.111c-.168-.157-.231.077-.281.05-.314-.174-.484.124-.566.136s-.207-.157-.347.2c-.066.157-.412.223-.441.229-.139.016-.171-.078-.171-.078a.737.737,0,0,0-.041-.1.242.242,0,0,0-.05-.069.169.169,0,0,0-.141-.046.2.2,0,0,0-.183.194.19.19,0,0,0,.041.121c.009.009.042-.035.086-.033a.143.143,0,0,1,.14.138h0c.009.157-.232.314-.232.314-.141.125-.314-.049-.314-.049a.389.389,0,0,0-.157-.088.19.19,0,0,0-.157.113.191.191,0,0,0-.149-.113.389.389,0,0,0-.168.088s-.176.174-.314.049c0,0-.241-.157-.232-.314h0a.141.141,0,0,1,.138-.138c.046,0,.077.042.088.033a.2.2,0,0,0,.039-.121.2.2,0,0,0-.187-.194.166.166,0,0,0-.138.045.242.242,0,0,0-.052.069.645.645,0,0,0-.041.1s-.033.094-.173.078c-.028,0-.375-.074-.439-.229-.144-.353-.278-.185-.35-.2s-.253-.314-.565-.136c-.049.027-.111-.2-.279-.05a1.372,1.372,0,0,0-.8.019c-.027-.056-.179-.085-.22-.1A1.148,1.148,0,0,1,649-189.2a1.764,1.764,0,0,0-.5-.044.528.528,0,0,1-.194-.071,1.893,1.893,0,0,1-.549-.447c-.022-.03-.07-.1-.082-.108a.819.819,0,0,1-.136-.262,1.8,1.8,0,0,1,.074-.745c.016-.119.022-.166.025-.237a1.451,1.451,0,0,1-.75-.031,1.857,1.857,0,0,1,.064.751.543.543,0,0,1,.2.314c.014.125-.044.254.03.353a2,2,0,0,0,.489.384,9.635,9.635,0,0,0,.806.569c.094.02.157-.052.24-.038a.179.179,0,0,1,.071.045.694.694,0,0,0,.141.116c-.2.127-.46.281-.648.373,0,0-.3.157-.157.168,0,0,.209,0,.227.041,0,0-.088.035-.224.094q.47.169.968.306a2.364,2.364,0,0,1,.742-.529s.381.014.5-.26c.039-.085.2.157.53-.025.03-.016.082.074.176.1.031,0-.136.033-.1.177,0,.019-.271,0-.359.157a2.51,2.51,0,0,0-1.134.47l.295.067a.941.941,0,0,1,.628-.205.557.557,0,0,1,.455.4c.2.028.4.053.605.075h0c.052-.025.332-.157.205-.326,0,0-.066-.083-.182.027,0,0-.075.067-.1-.039a.3.3,0,0,0-.041-.108s-.055-.082.057-.044a.494.494,0,0,0,.194.017.187.187,0,0,0,.179-.19.2.2,0,0,0-.179-.2s-.02,0-.02.016a.073.073,0,0,1,.025.053c0,.039-.031.08-.069.067-.115-.031-.082-.254.075-.262a.388.388,0,0,1,.254.146,1.489,1.489,0,0,0,.511.483c.017,0-.042.143.111.191.017,0,0,.124.157.113a.874.874,0,0,1,.074.138h.844c.038-.085.067-.138.067-.138.157.013.141-.107.157-.113.157-.047.094-.185.111-.191.246-.085.511-.483.511-.483a.386.386,0,0,1,.254-.146c.157,0,.19.231.075.262-.036.011-.069-.028-.069-.067a.07.07,0,0,1,.025-.053c0-.011-.017-.016-.022-.016a.194.194,0,0,0-.177.2.188.188,0,0,0,.177.19.494.494,0,0,0,.2-.017c.11-.038.057.044.057.044a.313.313,0,0,0-.039.108c-.031.105-.105.039-.105.039-.118-.11-.183-.027-.183-.027-.127.166.157.3.207.326h0c.2-.02.4-.045.6-.075a.557.557,0,0,1,.453-.4.941.941,0,0,1,.627.206l.3-.067a2.509,2.509,0,0,0-1.134-.47c-.089-.157-.367-.136-.361-.157.035-.146-.132-.171-.1-.177.094-.025.144-.116.176-.1.331.185.491-.06.528.025.122.276.5.26.5.26a2.343,2.343,0,0,1,.743.528q.452-.122.888-.278a.037.037,0,0,0,0-.011.162.162,0,0,0-.019-.049.078.078,0,0,1,0-.014h0c-.012-.025-.028-.052-.044-.077h0a2.261,2.261,0,0,0-.224-.293h0l-.013-.013s.219-.332.354-.107c.013.03-.013.108-.149.11a1.728,1.728,0,0,1,.2.42h0c.069-.025.116-.041.141-.049a.272.272,0,0,1,.039-.009c-.085-.168-.213-.262-.177-.314.032-.014.157.045.22-.056a1.148,1.148,0,0,0,.049-.274.509.509,0,0,0,.218.05c.226,0,.314-.343.248-.455.033-.022.157-.129.177-.1.069.157.434.332.4-.028.058.174.1.373.314.358.149-.035.052-.287.105-.287.044.072.105.361.323.293a.174.174,0,0,0,.119-.173c.012-.278-.784-1.725-.855-2.362l-.036-.014c-.08-.039-.086-.157-.072-.254v-.019c-.1-.017-.245-.1-.27-.365,0-.238.107-.358.125-.358s.013.016.011.024c-.061.187-.105.412.033.536a.251.251,0,0,0,.138.053.217.217,0,0,1,.108-.118c.008,0,0,.013,0,.017a.373.373,0,0,0,0,.387.227.227,0,0,0,.146.064c.221-.08.334-.5.383-.627.149.031-.237.884.06,1.068.121-.011.191-.157.237-.276.1.252-.314.784-.019.9.182.045.246-.417.249-.359.052.707-.314,1.048-.08,1.159.2.093.266-.483.266-.412,0,.753-.384.964-.223,1.1.187.075.314-.38.314-.274-.016.676-.354.853-.2,1.069.174.245.5-.441.513-.314.02.157-.367.941-.146.993.19.047.252-.221.27-.278a14.321,14.321,0,0,0,.563-4.468" transform="translate(-639.942 202.77)"/>
        </g>
      </g>
    </g>
    <path id="Trazado_2286" data-name="Trazado 2286" class="cls-1" d="M661.261-212.3H634.225v59.046h59.844V-212.3Zm-.941,58.108H635.163v-57.167h25.161Zm32.806,0H661.261v-57.167h31.868Z" transform="translate(797.967 4439.3)"/>
  </g>
</svg>
