<svg xmlns="http://www.w3.org/2000/svg" width="26.349" height="26.349" viewBox="0 0 26.349 26.349">
  <g id="Grupo_1192" data-name="Grupo 1192" transform="translate(3603 116)">
    <path id="Elipse_997" data-name="Elipse 997" d="M13.174,0A13.174,13.174,0,1,1,0,13.174,13.174,13.174,0,0,1,13.174,0Z" transform="translate(-3603 -116)" fill="#25d366"/>
    <path id="whatsapp-brands" d="M13.117,34.2A7.659,7.659,0,0,0,7.711,32,7.586,7.586,0,0,0,.065,39.507,7.41,7.41,0,0,0,1.085,43.26L0,47.149,4.053,46.1a7.733,7.733,0,0,0,3.654.913h0a7.651,7.651,0,0,0,7.717-7.507A7.471,7.471,0,0,0,13.117,34.2ZM7.711,45.752a6.432,6.432,0,0,1-3.237-.869l-.231-.135-2.4.619.641-2.3-.152-.237a6.136,6.136,0,0,1-.971-3.32,6.306,6.306,0,0,1,6.357-6.239A6.357,6.357,0,0,1,12.2,35.1a6.21,6.21,0,0,1,1.932,4.413A6.369,6.369,0,0,1,7.711,45.752ZM11.2,41.079c-.189-.095-1.13-.548-1.305-.609s-.3-.095-.43.095-.492.609-.606.737-.224.142-.413.047a5.173,5.173,0,0,1-2.6-2.232c-.2-.331.2-.308.561-1.025a.342.342,0,0,0-.017-.328c-.048-.095-.43-1.018-.589-1.393s-.313-.314-.43-.321-.238-.007-.365-.007a.714.714,0,0,0-.51.233,2.092,2.092,0,0,0-.668,1.566A3.64,3.64,0,0,0,4.6,39.784a8.477,8.477,0,0,0,3.265,2.834,3.8,3.8,0,0,0,2.294.47,1.956,1.956,0,0,0,1.288-.893,1.542,1.542,0,0,0,.11-.893C11.512,41.218,11.385,41.17,11.2,41.079Z" transform="translate(-3597.54 -142.4)" fill="#fff"/>
  </g>
</svg>
