<svg xmlns="http://www.w3.org/2000/svg" width="30.22" height="30.22" viewBox="0 0 30.22 30.22">
  <defs>
    <style>
      .cls-1 {
        fill: #181818;
      }
    </style>
  </defs>
  <path id="Unión_4" data-name="Unión 4" class="cls-1" d="M0,15.11A15.11,15.11,0,1,1,15.11,30.22,15.11,15.11,0,0,1,0,15.11ZM11.677,7.1a6.141,6.141,0,0,0-2.03.388A4.276,4.276,0,0,0,7.2,9.936a6.135,6.135,0,0,0-.389,2.03c-.04.892-.05,1.176-.05,3.447s.01,2.556.05,3.447A6.135,6.135,0,0,0,7.2,20.89a4.276,4.276,0,0,0,2.446,2.446,6.157,6.157,0,0,0,2.03.389c.892.04,1.177.05,3.448.05s2.556-.01,3.447-.05a6.157,6.157,0,0,0,2.03-.389,4.276,4.276,0,0,0,2.446-2.446,6.135,6.135,0,0,0,.389-2.03c.04-.892.05-1.176.05-3.447s-.01-2.556-.05-3.447a6.135,6.135,0,0,0-.389-2.03A4.276,4.276,0,0,0,20.6,7.489a6.141,6.141,0,0,0-2.03-.388c-.892-.041-1.177-.05-3.447-.05S12.569,7.06,11.677,7.1Zm.069,15.118a4.644,4.644,0,0,1-1.553-.288,2.774,2.774,0,0,1-1.587-1.587,4.634,4.634,0,0,1-.288-1.552c-.04-.882-.049-1.146-.049-3.379s.009-2.5.049-3.379a4.639,4.639,0,0,1,.288-1.552,2.771,2.771,0,0,1,1.587-1.587,4.608,4.608,0,0,1,1.553-.288c.882-.04,1.146-.049,3.379-.049s2.5.008,3.379.049a4.6,4.6,0,0,1,1.552.288,2.765,2.765,0,0,1,1.587,1.587,4.62,4.62,0,0,1,.288,1.552c.04.882.049,1.146.049,3.379s-.008,2.5-.049,3.379a4.616,4.616,0,0,1-.288,1.552,2.769,2.769,0,0,1-1.587,1.587,4.639,4.639,0,0,1-1.552.288c-.882.04-1.146.048-3.379.048S12.627,22.259,11.746,22.22Zm-.915-6.807a4.294,4.294,0,1,0,4.294-4.294A4.294,4.294,0,0,0,10.831,15.413Zm7.754-4.463a1,1,0,1,0,1-1A1,1,0,0,0,18.585,10.949Zm-6.247,4.463A2.787,2.787,0,1,1,15.125,18.2,2.787,2.787,0,0,1,12.338,15.413Z"/>
</svg>
