<svg xmlns="http://www.w3.org/2000/svg" width="116.426" height="57" viewBox="0 0 116.426 57">
  <defs>
    <style>
      .cls-1 {
        fill: #767676;
      }
    </style>
  </defs>
  <g id="Grupo_7011" data-name="Grupo 7011" transform="translate(-1461 -5879.172)">
    <g id="Grupo_832" data-name="Grupo 832" transform="translate(1461 5879.172)">
      <path id="Trazado_2209" data-name="Trazado 2209" class="cls-1" d="M-194.23-155.456a6.716,6.716,0,0,0,1.991,5.072,6.715,6.715,0,0,0,5.1,1.926h6.946v-11.774h-3.061v8.782h-3.64c-2.4,0-3.725-1.13-4.1-2.854a10.888,10.888,0,0,1-.171-2.539V-163.3h-3.065Z" transform="translate(194.236 163.297)"/>
      <path id="Trazado_2210" data-name="Trazado 2210" class="cls-1" d="M-109.7-148.625c0-7.017-3.012-15.172-14.725-14.635v4.156c-2.244-2.659-5.845-4.413-11.464-4.156v14.8H-109.9a.259.259,0,0,0,.14-.043.212.212,0,0,0,.062-.129m-14.73-2.816h-8.392v-8.6c3.285,0,7.64,2.382,8.392,8.6m11.459,0h-8.366c-.008-.062-.018-.119-.03-.18v-8.418c3.289,0,7.643,2.382,8.4,8.6" transform="translate(151.057 163.293)"/>
      <path id="Trazado_2211" data-name="Trazado 2211" class="cls-1" d="M-16.165-159.628h2.682l2.737,10.7h.036l2.819-10.7H-5.33l-4.14,13.883h-2.624Z" transform="translate(62.442 160.585)"/>
      <path id="Trazado_2212" data-name="Trazado 2212" class="cls-1" d="M30.94-141.832c0-1.811-.584-2.724-1.672-2.724-1.26,0-1.784,1.372-1.784,2.724Zm1.826,5.508a7.3,7.3,0,0,1-2.99.655c-3.223,0-4.621-2.364-4.621-5.129,0-3.064,1.573-5.434,4.113-5.434,2.153,0,4,1.294,4,5.469v.477H27.484c0,1.751.677,2.8,2.545,2.8a3.9,3.9,0,0,0,2.62-.8Z" transform="translate(31.858 150.666)"/>
      <path id="Trazado_2213" data-name="Trazado 2213" class="cls-1" d="M63.317-144.38a14.682,14.682,0,0,0-.076-1.689H65.5c.016.518.076,1.052.076,1.571h.038a2.922,2.922,0,0,1,2.66-1.731c2.271,0,2.95,1.731,2.95,3.8v6.6h-2.4v-6.146c0-1.569-.388-2.227-1.379-2.227-1.262,0-1.712,1.093-1.712,2.408v5.965H63.317Z" transform="translate(3.666 150.674)"/>
      <path id="Trazado_2214" data-name="Trazado 2214" class="cls-1" d="M101.218-155.884l2.405-.754v2.862h2v1.811h-2v5.311c0,1.093.388,1.413,1.087,1.413a1.874,1.874,0,0,0,.915-.22v1.752a3.666,3.666,0,0,1-1.611.338c-1.786,0-2.8-.837-2.8-2.985v-5.609H99.627v-1.811h1.591Z" transform="translate(-23.261 158.373)"/>
      <path id="Trazado_2215" data-name="Trazado 2215" class="cls-1" d="M136.514-137.067a14.051,14.051,0,0,0,.076,1.692h-2.25c-.022-.518-.078-1.056-.078-1.572l-.058-.021.017.021a2.9,2.9,0,0,1-2.658,1.729c-2.272,0-2.949-1.729-2.949-3.8v-6.6h2.405v6.146c0,1.57.426,2.227,1.438,2.227,1.284,0,1.652-1.194,1.652-2.5v-5.868h2.407Z" transform="translate(-44.716 150.215)"/>
      <path id="Trazado_2216" data-name="Trazado 2216" class="cls-1" d="M167.457-144.38a14.3,14.3,0,0,0-.076-1.689h2.172c.019.615.079,1.251.079,1.868h.04a2.8,2.8,0,0,1,2.543-2.029,2.616,2.616,0,0,1,.406.06v2.31a2.458,2.458,0,0,0-.677-.1c-.994,0-2.077.617-2.077,2.527v5.608h-2.411Z" transform="translate(-73.409 150.674)"/>
      <path id="Trazado_2217" data-name="Trazado 2217" class="cls-1" d="M197.668-141.832c0-1.811-.582-2.724-1.668-2.724-1.263,0-1.791,1.372-1.791,2.724Zm1.824,5.508a7.3,7.3,0,0,1-2.988.655c-3.222,0-4.621-2.364-4.621-5.129,0-3.064,1.569-5.434,4.116-5.434,2.152,0,4,1.294,4,5.469v.477h-5.79c0,1.751.679,2.8,2.546,2.8a3.889,3.889,0,0,0,2.619-.8Z" transform="translate(-91.545 150.666)"/>
      <path id="Trazado_2218" data-name="Trazado 2218" class="cls-1" d="M228.895-138.21a6.3,6.3,0,0,0,2.5.674c.875,0,1.553-.216,1.553-1.013,0-.4-.194-.776-1.067-1.294l-.989-.6c-1.011-.616-2.118-1.271-2.118-2.884a3.209,3.209,0,0,1,3.456-2.9,7.869,7.869,0,0,1,2.5.415L234.6-143.9a5.358,5.358,0,0,0-2.117-.461c-.969,0-1.377.38-1.377.995,0,.559.424.857,1.124,1.313l1.185.776c1.242.818,1.862,1.395,1.862,2.588,0,1.89-1.553,3.023-3.728,3.023a7.925,7.925,0,0,1-2.775-.5Z" transform="translate(-118.854 150.664)"/>
    </g>
    <g id="Grupo_833" data-name="Grupo 833" transform="translate(1461 5915.651)">
      <path id="Trazado_2219" data-name="Trazado 2219" class="cls-1" d="M554.064-148.942a11.9,11.9,0,0,0,7.815-3.441,11.849,11.849,0,0,0,3.508-8.779,11.838,11.838,0,0,0-2.885-8.186.34.34,0,0,0-.25-.111.323.323,0,0,0-.321.321.381.381,0,0,0,.015.086c1.447,3.9.6,7.815-1.953,8.855-1.795.727-3.966-.148-5.677-2.049a.348.348,0,0,0-.478,0,.329.329,0,0,0-.032.432l.036.041a8.994,8.994,0,0,1,2.234,6.173,8.793,8.793,0,0,1-2.234,6.111.317.317,0,0,0-.1.23.325.325,0,0,0,.323.318Z" transform="translate(-493.266 169.459)"/>
      <path id="Trazado_2220" data-name="Trazado 2220" class="cls-1" d="M452.715-132.683q-.389-.56-1.029-1.676a22.337,22.337,0,0,0-1.588-2.479,5.579,5.579,0,0,0-1.15-1.122,3.545,3.545,0,0,0,1.655-1.247,3.561,3.561,0,0,0,.534-1.974,3.379,3.379,0,0,0-1.094-2.658,4.588,4.588,0,0,0-3.081-.985h-3.078v13.08H445.8v-5.687h.135a2.644,2.644,0,0,1,1.234.21,3.949,3.949,0,0,1,.819.69,10.163,10.163,0,0,1,1,1.281l.589,1.019.546.957.343.518a1.736,1.736,0,0,1,.1.156l.539.863h2.259Zm-4.515-6.825a4.988,4.988,0,0,1-1.786.222h-.61v-3.767h.479a6.319,6.319,0,0,1,1.806.19,1.534,1.534,0,0,1,.791.645,1.9,1.9,0,0,1,.281,1.018,2.044,2.044,0,0,1-.249,1.019,1.588,1.588,0,0,1-.711.674Z" transform="translate(-415.908 152.112)"/>
      <path id="Trazado_2221" data-name="Trazado 2221" class="cls-1" d="M481.352-144.827h6.557v1.848h-4.615v3.3h4.615v1.841h-4.615v6.094h-1.938Z" transform="translate(-442.292 152.113)"/>
      <path id="Trazado_2222" data-name="Trazado 2222" class="cls-1" d="M403.621-143.534a6.386,6.386,0,0,0-4.748-1.917,6.3,6.3,0,0,0-4.717,1.917,6.68,6.68,0,0,0-1.862,4.85,6.528,6.528,0,0,0,1.85,4.752,6.215,6.215,0,0,0,4.633,1.9,6.579,6.579,0,0,0,4.829-1.9,6.459,6.459,0,0,0,1.913-4.788,6.567,6.567,0,0,0-1.9-4.814Zm-1.431,8.356a4.29,4.29,0,0,1-3.3,1.438,4.293,4.293,0,0,1-3.281-1.409,5,5,0,0,1-1.308-3.532,5.094,5.094,0,0,1,1.306-3.6,4.344,4.344,0,0,1,3.335-1.408,4.25,4.25,0,0,1,3.243,1.421,4.96,4.96,0,0,1,1.328,3.507,5.081,5.081,0,0,1-1.325,3.577Z" transform="translate(-379.576 152.552)"/>
      <path id="Trazado_2223" data-name="Trazado 2223" class="cls-1" d="M520.822-143.534a6.387,6.387,0,0,0-4.747-1.917,6.3,6.3,0,0,0-4.718,1.917,6.687,6.687,0,0,0-1.863,4.85,6.522,6.522,0,0,0,1.853,4.752,6.21,6.21,0,0,0,4.632,1.9,6.569,6.569,0,0,0,4.827-1.9,6.462,6.462,0,0,0,1.914-4.788A6.569,6.569,0,0,0,520.822-143.534Zm-1.429,8.356a4.3,4.3,0,0,1-3.3,1.438,4.291,4.291,0,0,1-3.278-1.409,5,5,0,0,1-1.311-3.532,5.09,5.09,0,0,1,1.307-3.6,4.344,4.344,0,0,1,3.334-1.408,4.257,4.257,0,0,1,3.243,1.421,4.952,4.952,0,0,1,1.326,3.507,5.073,5.073,0,0,1-1.318,3.577Z" transform="translate(-462.11 152.552)"/>
      <path id="Trazado_2224" data-name="Trazado 2224" class="cls-1" d="M360.216-135.141a5.217,5.217,0,0,1-3.752,1.438,5.2,5.2,0,0,1-3.727-1.409,4.653,4.653,0,0,1-1.5-3.532,4.739,4.739,0,0,1,1.485-3.6,5.276,5.276,0,0,1,3.8-1.413,5.172,5.172,0,0,1,3.694,1.421l.031.032v-2.12a10.585,10.585,0,0,0-4.305-1.075,6.381,6.381,0,0,0-4.724,1.946,6.575,6.575,0,0,0-1.915,4.8,6.878,6.878,0,0,0,.838,3.343,6.257,6.257,0,0,0,2.269,2.423A6.556,6.556,0,0,0,355.9-132a8.719,8.719,0,0,0,4.473-1.122V-135.3s-.011,0-.015.007C360.313-135.239,360.265-135.191,360.216-135.141Z" transform="translate(-349.3 152.512)"/>
      <path id="Trazado_2225" data-name="Trazado 2225" class="cls-1" d="M566.844-156.429a2.271,2.271,0,0,0-1.688-.687,2.245,2.245,0,0,0-1.679.687,2.383,2.383,0,0,0-.661,1.724,2.314,2.314,0,0,0,.657,1.689,2.207,2.207,0,0,0,1.649.677,2.343,2.343,0,0,0,1.721-.677,2.3,2.3,0,0,0,.68-1.7A2.333,2.333,0,0,0,566.844-156.429Z" transform="translate(-499.661 160.766)"/>
    </g>
  </g>
</svg>
