<svg xmlns="http://www.w3.org/2000/svg" width="19.317" height="21.966" viewBox="0 0 19.317 21.966">
  <defs>
    <style>
      .cls-1 {
        fill: #90b231;
      }

      .cls-2 {
        fill: #567c2d;
      }

      .cls-3 {
        fill: #fff;
      }
    </style>
  </defs>
  <g id="_28-icon-shopify-nav" data-name="28-icon-shopify-nav" transform="translate(-1107.275 -185.496)">
    <path id="Trazado_1239" data-name="Trazado 1239" class="cls-1" d="M143.761,140.532a.213.213,0,0,0-.192-.178l-1.768-.132-1.3-1.292a.534.534,0,0,0-.478-.06l-.657.2c-.392-1.126-1.083-2.163-2.3-2.163h-.1a1.476,1.476,0,0,0-1.144-.657c-2.828,0-4.181,3.542-4.61,5.341l-1.982.615c-.615.193-.633.212-.715.791-.06.438-1.669,12.872-1.669,12.872l12.528,2.348,6.788-1.468S143.777,140.642,143.761,140.532Zm-5.088-1.247-1.06.328v-.229a5.2,5.2,0,0,0-.253-1.712c.627.079,1.045.792,1.313,1.612Zm-2.091-1.476a5.256,5.256,0,0,1,.288,1.909c0,.043,0,.082,0,.123l-2.189.678a3.743,3.743,0,0,1,1.9-2.707Zm-.841-.8a.64.64,0,0,1,.369.123,4.71,4.71,0,0,0-2.292,3.652l-1.73.536c.482-1.638,1.62-4.309,3.654-4.309Z" transform="translate(980.433 49.244)"/>
    <path id="Trazado_1240" data-name="Trazado 1240" class="cls-2" d="M202.039,152.445l-1.768-.132-1.3-1.3a.319.319,0,0,0-.181-.084l-.947,19.376,6.787-1.468s-2.383-16.11-2.4-16.221a.211.211,0,0,0-.192-.175Z" transform="translate(921.963 37.153)"/>
    <path id="Trazado_1241" data-name="Trazado 1241" class="cls-3" d="M150.895,179.209l-.837,2.49a3.851,3.851,0,0,0-1.632-.391c-1.318,0-1.385.828-1.385,1.036,0,1.138,2.964,1.573,2.964,4.237a3.141,3.141,0,0,1-3.121,3.443,4.341,4.341,0,0,1-3.25-1.338l.576-1.9a4.116,4.116,0,0,0,2.084.97.841.841,0,0,0,.877-.85c0-1.483-2.431-1.55-2.431-3.987a4.058,4.058,0,0,1,4.444-4.036A3.656,3.656,0,0,1,150.895,179.209Z" transform="translate(966.604 14.139)"/>
  </g>
</svg>
