<svg xmlns="http://www.w3.org/2000/svg" width="26" height="26" viewBox="0 0 26 26">
  <defs>
    <style>
      .cls-1 {
        fill: #181818;
      }
    </style>
  </defs>
  <path id="_28-icon-dlive-nav" data-name="28-icon-dlive-nav" class="cls-1" d="M13,26A13,13,0,0,1,3.808,3.808,13,13,0,1,1,22.192,22.192,12.915,12.915,0,0,1,13,26ZM10.282,15.383v1.746a1.7,1.7,0,0,0,1.69,1.679h1.155c.654,0,1.33,0,2,.007a.759.759,0,0,1,.417.136c.449.326.9.666,1.334.995l.64.482a.386.386,0,0,0,.218.09c.106,0,.186-.083.231-.239A1.408,1.408,0,0,0,18,19.919V18.81h.688c.052.005.106.008.16.008s.079,0,.118,0a1.731,1.731,0,0,0,1.6-1.846c.025-1.625.025-2.869,0-4.036a1.573,1.573,0,0,0-1.242-1.724,18.267,18.267,0,0,0-2.114-.123h-.13V11.1c.011.328.042,1.444,0,2.014A2.292,2.292,0,0,1,15.5,15.2a3.213,3.213,0,0,1-1.074.184H14.4c-.549.009-1.129.012-1.881.012l-1.094,0h-.008l-1.136,0Zm.4-8.475c-1.357,0-2.39,0-3.351,0-.329,0-.661.023-.985.059a1.627,1.627,0,0,0-1.413,1.56q0,.564,0,1.129v.157c0,1.042,0,2.119.012,3.181a1.628,1.628,0,0,0,.23.773,1.714,1.714,0,0,0,1.491.871h.005l0,.354V15c0,.307,0,.6.009.889.005.127.048.336.145.389A.155.155,0,0,0,6.9,16.3a.674.674,0,0,0,.329-.123c.322-.23.645-.469.948-.694l.083-.061c.287-.212.584-.431.879-.642a.887.887,0,0,1,.476-.154c.994-.005,1.827-.009,2.664-.009.771,0,1.442,0,2.052.009.058,0,.105.006.148.006l.065,0a1.727,1.727,0,0,0,1.673-1.776c.03-1.433-.005-2.835-.054-4.518A1.537,1.537,0,0,0,14.9,6.976a6.067,6.067,0,0,0-.859-.064C13.076,6.909,12.043,6.908,10.686,6.908Zm2.868,4.758a.892.892,0,1,1,.892-.892A.893.893,0,0,1,13.553,11.665Zm-2.972,0a.892.892,0,1,1,.893-.892A.892.892,0,0,1,10.581,11.665Zm-2.972,0a.892.892,0,1,1,.892-.892A.893.893,0,0,1,7.609,11.665Z"/>
</svg>
