<svg xmlns="http://www.w3.org/2000/svg" width="26.348" height="26.348" viewBox="0 0 26.348 26.348">
  <defs>
    <style>
      .cls-1 {
        fill: #f5365c;
      }
    </style>
  </defs>
  <path id="_28-icon-realstate-nav" data-name="28-icon-realstate-nav" class="cls-1" d="M13.174,26.348A13.174,13.174,0,0,1,3.859,3.859,13.174,13.174,0,1,1,22.49,22.49,13.088,13.088,0,0,1,13.174,26.348ZM10.268,9.975H9.049c-.18,0-.358.008-.529.02a1.576,1.576,0,0,0-.937.38A1.662,1.662,0,0,0,7,11.7q0,2.871,0,5.743c0,.239.007.433.021.609a1.591,1.591,0,0,0,.738,1.253,1.907,1.907,0,0,0,1.071.266h8.745c.194,0,.4-.006.65-.02a1.491,1.491,0,0,0,.814-.3,1.659,1.659,0,0,0,.683-1.41q0-.784,0-1.57V15.5q0-.587,0-1.173V14.28q0-.562,0-1.124V11.595q0-1.561,0-3.122a1.664,1.664,0,0,0-.279-.964,1.683,1.683,0,0,0-1.475-.734l-2.074,0c-.783,0-1.563,0-2.319,0a1.87,1.87,0,0,0-.827.164,1.627,1.627,0,0,0-.943,1.518c-.011.464-.005.935,0,1.391a.144.144,0,0,1-.025.1.133.133,0,0,1-.1.026C11.252,9.976,10.789,9.975,10.268,9.975Zm-.853,5.591c-.168,0-.338,0-.505-.014a.37.37,0,0,1-.311-.4c0-.089,0-.18,0-.268,0-.037,0-.075,0-.112s0-.073,0-.11c0-.086,0-.173,0-.26a.378.378,0,0,1,.372-.415c.15-.012.3-.019.448-.019.128,0,.256,0,.379.014.271.022.377.13.393.4a6.853,6.853,0,0,1-.012.848.31.31,0,0,1-.313.319C9.717,15.562,9.566,15.566,9.415,15.566Zm4.607-.789c-.087,0-.172,0-.254-.006a.4.4,0,0,1-.367-.417c0-.087,0-.175,0-.261,0-.04,0-.079,0-.119h-.008c0-.044,0-.089,0-.133a2.861,2.861,0,0,1,.022-.324.375.375,0,0,1,.373-.34l.205,0c.185,0,.381.007.582.02a.326.326,0,0,1,.323.311c.015.3.015.623,0,.946a.308.308,0,0,1-.3.3C14.392,14.769,14.2,14.776,14.022,14.776Zm3.306-.011c-.165,0-.33,0-.492-.013a.37.37,0,0,1-.313-.394c0-.087,0-.175,0-.26,0-.041,0-.081,0-.119s0-.071,0-.107c0-.071,0-.143,0-.213.006-.314.139-.461.431-.477.078,0,.164-.007.262-.007.192,0,.386.01.566.022a.323.323,0,0,1,.322.312c.015.31.015.626,0,.937a.305.305,0,0,1-.31.31C17.638,14.761,17.482,14.765,17.329,14.765Zm-7.957-1.6c-.14,0-.278,0-.41-.013a.372.372,0,0,1-.363-.4c0-.089,0-.18,0-.268,0-.037,0-.075,0-.112s0-.077,0-.116c0-.083,0-.17,0-.254a.379.379,0,0,1,.372-.416c.15-.012.3-.019.448-.019.128,0,.255,0,.379.014.27.021.377.129.394.4a6.537,6.537,0,0,1-.012.848.313.313,0,0,1-.322.32C9.69,13.165,9.526,13.17,9.372,13.17Zm4.665-.794h0c-.089,0-.177,0-.262-.006a.4.4,0,0,1-.373-.411c0-.087,0-.174,0-.259,0-.041,0-.081,0-.121h-.009c0-.047,0-.094,0-.141a2.885,2.885,0,0,1,.02-.317.374.374,0,0,1,.358-.344c.118-.007.233-.01.342-.01.142,0,.279.006.406.018.27.024.376.133.392.4a6.521,6.521,0,0,1-.012.847.318.318,0,0,1-.322.32C14.394,12.369,14.211,12.376,14.037,12.376Zm3.3-.013c-.165,0-.333,0-.5-.013a.362.362,0,0,1-.312-.384c-.01-.271-.01-.523,0-.769a.387.387,0,0,1,.408-.415c.13-.01.26-.015.385-.015s.263.005.393.016c.286.024.4.153.413.461,0,.079,0,.158,0,.236,0,.035,0,.07,0,.1h.01c0,.045,0,.091-.007.136,0,.106-.01.216-.023.322a.32.32,0,0,1-.311.311C17.644,12.36,17.49,12.363,17.337,12.363Zm-3.32-2.39c-.085,0-.168,0-.248-.005a.4.4,0,0,1-.368-.417c0-.087,0-.175,0-.261,0-.04,0-.079,0-.118h0c0-.044,0-.089,0-.132a2.884,2.884,0,0,1,.022-.325.373.373,0,0,1,.362-.339c.111,0,.213-.007.311-.007.161,0,.307.006.447.019a.346.346,0,0,1,.372.374,7.319,7.319,0,0,1-.01.9.3.3,0,0,1-.294.293C14.381,9.966,14.194,9.974,14.017,9.974Zm3.315-.011c-.16,0-.324,0-.487-.013a.374.374,0,0,1-.321-.4c0-.089,0-.18,0-.268,0-.037,0-.075,0-.112s0-.073,0-.11c0-.086,0-.173,0-.26a.376.376,0,0,1,.372-.414c.15-.013.3-.019.447-.019.129,0,.257,0,.381.015.27.021.376.129.392.4a6.848,6.848,0,0,1-.012.848.31.31,0,0,1-.313.318C17.641,9.959,17.486,9.963,17.332,9.963Z"/>
</svg>
