<svg id="logo-la-nave" xmlns="http://www.w3.org/2000/svg" width="110.643" height="44.862" viewBox="0 0 110.643 44.862">
  <defs>
    <style>
      .cls-1 {
        fill: #767676;
      }
    </style>
  </defs>
  <path id="Trazado_21418" data-name="Trazado 21418" class="cls-1" d="M111.686,44.864h.8V0h-.8Z" transform="translate(-64.859 -0.002)"/>
  <path id="Trazado_21419" data-name="Trazado 21419" class="cls-1" d="M32.568,17.164H5.665a.627.627,0,0,0,0,1.254h26.9a.627.627,0,1,0,0-1.254Z" transform="translate(-2.926 -9.967)"/>
  <path id="Trazado_21420" data-name="Trazado 21420" class="cls-1" d="M32.568,24.762H5.665a.627.627,0,0,0,0,1.254h26.9a.627.627,0,1,0,0-1.254Z" transform="translate(-2.926 -14.38)"/>
  <path id="Trazado_21421" data-name="Trazado 21421" class="cls-1" d="M5.664,22.215h1.4a.627.627,0,0,0,0-1.254h-1.4a.627.627,0,1,0,0,1.254Z" transform="translate(-2.925 -12.173)"/>
  <path id="Trazado_21422" data-name="Trazado 21422" class="cls-1" d="M67.9,20.961H66.5a.627.627,0,1,0,0,1.254h1.4a.627.627,0,1,0,0-1.254Z" transform="translate(-38.252 -12.173)"/>
  <path id="Trazado_21423" data-name="Trazado 21423" class="cls-1" d="M37.207,22.215a.627.627,0,1,0,0-1.254h-2.8a.627.627,0,1,0,0,1.254Z" transform="translate(-19.616 -12.173)"/>
  <path id="Trazado_21424" data-name="Trazado 21424" class="cls-1" d="M17.652,21.417l2.061.708,2.063-.708-2.063-.708Z" transform="translate(-10.251 -12.026)"/>
  <path id="Trazado_21425" data-name="Trazado 21425" class="cls-1" d="M49.743,21.417l2.059.708,2.064-.708L51.8,20.709Z" transform="translate(-28.887 -12.026)"/>
  <path id="Trazado_21426" data-name="Trazado 21426" class="cls-1" d="M62.459,21.449a.682.682,0,1,0-.681.683A.684.684,0,0,0,62.459,21.449Z" transform="translate(-35.48 -12.059)"/>
  <path id="Trazado_21427" data-name="Trazado 21427" class="cls-1" d="M46.334,21.449a.683.683,0,1,0-.683.683A.684.684,0,0,0,46.334,21.449Z" transform="translate(-26.114 -12.059)"/>
  <path id="Trazado_21428" data-name="Trazado 21428" class="cls-1" d="M30.37,21.449a.683.683,0,1,0-.683.683A.684.684,0,0,0,30.37,21.449Z" transform="translate(-16.843 -12.059)"/>
  <path id="Trazado_21429" data-name="Trazado 21429" class="cls-1" d="M14.243,21.449a.683.683,0,1,0-.683.683A.684.684,0,0,0,14.243,21.449Z" transform="translate(-7.478 -12.059)"/>
  <path id="Trazado_21430" data-name="Trazado 21430" class="cls-1" d="M30.985,0a2.245,2.245,0,0,0-1.837,1.172,3.683,3.683,0,0,0-.5-.067,1.335,1.335,0,0,0-.759.138,1.332,1.332,0,0,1,.7,1.05A1.334,1.334,0,0,1,27.542,1.6a1.332,1.332,0,0,0-.138.757c0,.085,0,.185,0,.27a1.62,1.62,0,0,0-1.074.568,1.638,1.638,0,0,0,1.074.567c0,.085,0,.185,0,.27a1.332,1.332,0,0,0,.138.757,1.361,1.361,0,0,1,1.286-.708h.118c0,.051,0,.1,0,.149,0,.694-.321,1.324-1.162,1.324a1.118,1.118,0,0,1-.99-.671.778.778,0,0,0,.148-.458.786.786,0,1,0-1.425.458,1.118,1.118,0,0,1-.99.671c-.841,0-1.164-.63-1.164-1.324,0-.047,0-.1.006-.149h.118a1.36,1.36,0,0,1,1.286.708,1.334,1.334,0,0,0,.138-.757c0-.085,0-.185-.006-.27A1.638,1.638,0,0,0,25.985,3.2a1.62,1.62,0,0,0-1.076-.568c0-.085.006-.185.006-.27a1.334,1.334,0,0,0-.138-.757,1.337,1.337,0,0,1-1.041.694,1.331,1.331,0,0,1,.694-1.05,1.325,1.325,0,0,0-.757-.138c-.084,0-.183,0-.269.006A1.633,1.633,0,0,0,22.836.036a1.633,1.633,0,0,0-.568,1.075c-.085,0-.185-.006-.269-.006a1.325,1.325,0,0,0-.757.138,1.331,1.331,0,0,1,.694,1.05A1.336,1.336,0,0,1,20.895,1.6a1.346,1.346,0,0,0-.138.757c0,.085,0,.185.006.27a1.617,1.617,0,0,0-1.074.568,1.634,1.634,0,0,0,1.074.567c0,.085-.006.185-.006.27a1.346,1.346,0,0,0,.138.757,1.361,1.361,0,0,1,1.286-.708H22.3c0,.051.006.1.006.149,0,.694-.323,1.324-1.162,1.324a1.116,1.116,0,0,1-.99-.671.786.786,0,0,0-.639-1.245.76.76,0,0,0-.158.017.788.788,0,0,0-.481,1.227,1.115,1.115,0,0,1-.989.671c-.843,0-1.164-.63-1.164-1.324,0-.047,0-.1.006-.149h.118a1.362,1.362,0,0,1,1.287.708,1.348,1.348,0,0,0,.138-.757c0-.085,0-.185-.006-.27A1.642,1.642,0,0,0,19.34,3.2a1.624,1.624,0,0,0-1.076-.568c0-.085.006-.185.006-.27a1.348,1.348,0,0,0-.138-.757,1.337,1.337,0,0,1-1.043.694,1.332,1.332,0,0,1,.7-1.05,1.328,1.328,0,0,0-.757-.138c-.084,0-.185,0-.268.006A1.64,1.64,0,0,0,16.191.036a1.626,1.626,0,0,0-.568,1.075c-.086,0-.185-.006-.269-.006a1.325,1.325,0,0,0-.757.138,1.334,1.334,0,0,1,.694,1.05A1.34,1.34,0,0,1,14.248,1.6a1.349,1.349,0,0,0-.137.757c0,.085,0,.185.006.27a1.62,1.62,0,0,0-1.076.568,1.638,1.638,0,0,0,1.076.567c0,.085-.006.185-.006.27a1.349,1.349,0,0,0,.137.757,1.363,1.363,0,0,1,1.286-.708h.12c0,.051.006.1.006.149,0,.694-.323,1.324-1.164,1.324a1.118,1.118,0,0,1-.992-.674.785.785,0,1,0-1.277.006,1.118,1.118,0,0,1-.989.667c-.841,0-1.162-.63-1.162-1.324,0-.047,0-.1,0-.149H10.2a1.362,1.362,0,0,1,1.287.708,1.334,1.334,0,0,0,.138-.757c0-.085,0-.185,0-.27A1.638,1.638,0,0,0,12.693,3.2a1.62,1.62,0,0,0-1.074-.568c0-.085,0-.185,0-.27a1.334,1.334,0,0,0-.138-.757,1.331,1.331,0,0,1-1.041.694,1.334,1.334,0,0,1,.694-1.05,1.326,1.326,0,0,0-.757-.138c-.084,0-.183,0-.27.006A1.625,1.625,0,0,0,9.544.036a1.638,1.638,0,0,0-.568,1.075c-.084,0-.185-.006-.269-.006a1.325,1.325,0,0,0-.757.138,1.332,1.332,0,0,1,.7,1.05A1.337,1.337,0,0,1,7.6,1.6a1.346,1.346,0,0,0-.138.757c0,.085,0,.185.006.27A1.62,1.62,0,0,0,6.4,3.2a1.638,1.638,0,0,0,1.074.567c0,.085-.006.185-.006.27a1.346,1.346,0,0,0,.138.757,1.362,1.362,0,0,1,1.286-.708h.118c0,.051.006.1.006.149,0,.694-.323,1.324-1.164,1.324a1.115,1.115,0,0,1-.989-.671.778.778,0,0,0,.146-.458.786.786,0,1,0-1.425.458,1.117,1.117,0,0,1-.989.671c-.843,0-1.164-.63-1.164-1.324,0-.047,0-.1.006-.149h.118a1.363,1.363,0,0,1,1.286.708,1.346,1.346,0,0,0,.138-.757c0-.085,0-.185-.006-.27A1.634,1.634,0,0,0,6.046,3.2a1.617,1.617,0,0,0-1.074-.568c0-.085.006-.185.006-.27A1.346,1.346,0,0,0,4.84,1.6,1.337,1.337,0,0,1,3.8,2.294a1.335,1.335,0,0,1,.7-1.05A1.328,1.328,0,0,0,3.735,1.1a3.712,3.712,0,0,0-.5.067A2.242,2.242,0,0,0,1.4,0,2.609,2.609,0,0,0,0,.424a1.853,1.853,0,0,1,1.394.5c.667.666.715,1.2.715,3.033,0,1.951,1,2.905,2.441,2.905a3.314,3.314,0,0,0,1.671-.635,3.314,3.314,0,0,0,1.671.635,2.9,2.9,0,0,0,1.651-.675,2.9,2.9,0,0,0,1.653.675,3.306,3.306,0,0,0,1.67-.635,3.314,3.314,0,0,0,1.671.635,2.9,2.9,0,0,0,1.653-.675,2.9,2.9,0,0,0,1.651.675,3.314,3.314,0,0,0,1.671-.635,3.314,3.314,0,0,0,1.671.635,2.9,2.9,0,0,0,1.651-.675,2.9,2.9,0,0,0,1.651.675,3.315,3.315,0,0,0,1.673-.635,3.307,3.307,0,0,0,1.67.635c1.44,0,2.44-.954,2.44-2.905,0-1.83.051-2.367.717-3.033a1.854,1.854,0,0,1,1.393-.5A2.6,2.6,0,0,0,30.985,0Z"/>
  <path id="Trazado_21431" data-name="Trazado 21431" class="cls-1" d="M6.053,28.789l0,22.378c0,6.628,4.612,10.409,13.649,10.409S33.35,57.8,33.35,51.168V28.789ZM18.43,30.135l.9.1.366-.83.368.83.9-.1-.535.734.535.734-.9-.1-.368.83-.366-.83-.9.1.538-.734Zm-11.517,0,.9.1.366-.83.368.83.9-.1-.537.734.537.734-.9-.1-.368.83-.366-.83-.9.1.537-.734Zm0,11,.9.1.366-.832.368.832.9-.1-.537.734.537.734-.9-.1-.368.832L7.818,42.5l-.9.1.537-.734ZM9.621,53.6l-.9-.1-.366.832L7.984,53.5l-.9.1.537-.733-.537-.734.9.1L8.35,51.4l.366.832.9-.1-.537.734Zm10.08,3.56c-5.221,0-7.555-1.56-8.587-3.267H28.289C27.257,55.6,24.923,57.161,19.7,57.161Zm2.931-5.725.923,1.086-.476.163a.593.593,0,0,0-.252.189l-.1.149H21.648a1.109,1.109,0,0,1-1.11-1.11V46.765l.647,1.285a.411.411,0,0,0,.45.216l.3-.081,0,.256a6.219,6.219,0,0,0,.05.812c.149,1.093.585,1.454.79,1.566l-.163.225A.338.338,0,0,0,22.632,51.436Zm6.455-.737a6.6,6.6,0,0,1-.379,2.325H26.551l-.728-1.65a1.753,1.753,0,0,0,.244-2.083l-.846-1.457-1.015-2.884-.073-1.175.225-.126a.405.405,0,0,0,.183-.473l-.067-.2a.4.4,0,0,0-.435-.258l-.329.059L23.23,42.4a.411.411,0,0,0-.293-.07l-.3.059-.686-.543a.157.157,0,0,0-.226.033l-.4.554a.4.4,0,0,0-.014.415l.611.99v1.774h-.436c-.241,0-.436-.259-.436-.58v-.566a.466.466,0,0,0-.116-.284l-.4-.4v-2.27c2.876-.286,5.078-1.87,5.078-3.784,0-2.114-2.69-3.827-6.009-3.827S13.6,35.612,13.6,37.725c0,1.913,2.2,3.5,5.079,3.784V51.914a1.109,1.109,0,0,1-1.11,1.11H10.695a6.643,6.643,0,0,1-.38-2.325V32.949H29.087Zm3.237,2.9-.9-.1-.368.832-.368-.832-.9.1.537-.733-.537-.734.9.1.368-.832.368.832.9-.1-.537.734Zm.166-11-.9-.1-.366.832-.368-.832-.9.1.537-.734-.537-.734.9.1.368-.832.366.832.9-.1-.537.734Zm0-11-.9-.1-.366.83-.368-.83-.9.1.537-.734-.537-.734.9.1.368-.83.366.83.9-.1-.537.734Z" transform="translate(-3.514 -16.719)"/>
  <path id="Trazado_21432" data-name="Trazado 21432" class="cls-1" d="M154.174,30.66h2.069V0h-2.069Z" transform="translate(-89.533 0)"/>
  <path id="Trazado_21433" data-name="Trazado 21433" class="cls-1" d="M170,0h-2.069V30.66h13.735V28.591H170V25.01h11.666V22.941H170Z" transform="translate(-97.521 0)"/>
  <path id="Trazado_21434" data-name="Trazado 21434" class="cls-1" d="M207.582,0h-1.964V30.66h2.07V4.714l3.7,6.6V30.66h2.069V15.012l8.763,15.648h2.535L207.688.187Z" transform="translate(-119.408 0)"/>
  <path id="Trazado_21435" data-name="Trazado 21435" class="cls-1" d="M235.18,0V26.13l-3.7-6.6V0h-2.069V15.832L220.547,0h-2.535L235.18,30.657v0h2.069V0Z" transform="translate(-126.605 0)"/>
  <path id="Trazado_21436" data-name="Trazado 21436" class="cls-1" d="M154.174,95.116v-8.58h1.561v7.1h3.981v1.476Z" transform="translate(-89.533 -50.254)"/>
  <path id="Trazado_21437" data-name="Trazado 21437" class="cls-1" d="M172.15,88.448l-1.222,3.618h2.444Zm2.263,6.667-.557-1.646h-3.412l-.557,1.646h-1.573l3.013-8.579h1.706l3.013,8.579Z" transform="translate(-97.744 -50.254)"/>
  <path id="Trazado_21438" data-name="Trazado 21438" class="cls-1" d="M200.436,95.116l-3.715-5.893v5.893h-1.537v-8.58h1.658l3.667,5.809V86.536h1.537v8.58Z" transform="translate(-113.348 -50.254)"/>
  <path id="Trazado_21439" data-name="Trazado 21439" class="cls-1" d="M217.281,88.448l-1.222,3.618H218.5Zm2.263,6.667-.556-1.646h-3.412l-.557,1.646h-1.573l3.013-8.579h1.706l3.013,8.579Z" transform="translate(-123.953 -50.254)"/>
  <path id="Trazado_21440" data-name="Trazado 21440" class="cls-1" d="M234.378,95.116H232.66l-2.844-8.58h1.658l2.081,6.546,2.069-6.546H237.2Z" transform="translate(-133.46 -50.254)"/>
  <path id="Trazado_21441" data-name="Trazado 21441" class="cls-1" d="M249.317,95.116v-8.58h6.111v1.416h-4.55v2h4.005v1.4h-4.005V93.7h4.55v1.416Z" transform="translate(-144.785 -50.254)"/>
</svg>
