<svg xmlns="http://www.w3.org/2000/svg" xmlns:xlink="http://www.w3.org/1999/xlink" width="29.096" height="17.388" viewBox="0 0 29.096 17.388">
  <defs>
    <style>
      .cls-1, .cls-8 {
        fill: #fff;
      }

      .cls-1, .cls-11 {
        stroke: #cdcdcd;
      }

      .cls-11, .cls-2 {
        fill: none;
      }

      .cls-3 {
        clip-path: url(#clip-path);
      }

      .cls-4 {
        clip-path: url(#clip-path-2);
      }

      .cls-5 {
        fill: #4ea854;
      }

      .cls-6 {
        fill: #f7d044;
      }

      .cls-7 {
        fill: #3b1b90;
      }

      .cls-10, .cls-9 {
        fill: #3c9242;
      }

      .cls-9 {
        fill-rule: evenodd;
      }
    </style>
    <clipPath id="clip-path">
      <rect id="Rectángulo_5419" data-name="Rectángulo 5419" class="cls-1" width="28.096" height="16.388" rx="2" transform="translate(1861 -91.194)"/>
    </clipPath>
    <clipPath id="clip-path-2">
      <rect id="Rectángulo_156" data-name="Rectángulo 156" class="cls-2" width="28.096" height="16.388"/>
    </clipPath>
  </defs>
  <g id="Grupo_6984" data-name="Grupo 6984" transform="translate(-1860.5 91.694)">
    <g id="Enmascarar_grupo_6632" data-name="Enmascarar grupo 6632" class="cls-3">
      <g id="BRAZIL" transform="translate(2046.494 -208.881)">
        <g id="Grupo_104" data-name="Grupo 104" transform="translate(-185.494 117.687)">
          <g id="Grupo_103" data-name="Grupo 103">
            <g id="Grupo_102" data-name="Grupo 102" class="cls-4">
              <path id="Rectángulo_154" data-name="Rectángulo 154" class="cls-5" d="M0,0H28.1V16.388H0Z"/>
              <path id="Trazado_41" data-name="Trazado 41" class="cls-6" d="M-180.318,126.268l9.715,6.2,9.72-6.2-9.72-6.2Z" transform="translate(184.651 -118.074)"/>
              <g id="Grupo_101" data-name="Grupo 101">
                <g id="Grupo_100" data-name="Grupo 100" class="cls-4">
                  <path id="Trazado_42" data-name="Trazado 42" class="cls-7" d="M-165.413,126.677a4.1,4.1,0,0,1-4.1,4.1,4.094,4.094,0,0,1-4.094-4.1,4.1,4.1,0,0,1,4.094-4.1,4.1,4.1,0,0,1,4.1,4.1" transform="translate(183.557 -118.483)"/>
                  <path id="Trazado_43" data-name="Trazado 43" class="cls-8" d="M-171.824,125.376a10.241,10.241,0,0,0-1.409.1,4.193,4.193,0,0,0-.218.626,9.628,9.628,0,0,1,1.627-.14,9.327,9.327,0,0,1,6.251,2.394,3.769,3.769,0,0,0,.146-.648,9.9,9.9,0,0,0-6.4-2.332" transform="translate(183.532 -118.939)"/>
                  <path id="Trazado_44" data-name="Trazado 44" class="cls-9" d="M-172.926,125.968a.183.183,0,0,0,.119-.076.183.183,0,0,0,.03-.138.183.183,0,0,0-.062-.127.182.182,0,0,0-.134-.045.179.179,0,0,0-.121.075.179.179,0,0,0-.028.139.182.182,0,0,0,.062.127.182.182,0,0,0,.134.045m-.008-.071a.118.118,0,0,0,.084-.135.112.112,0,0,0-.036-.079.112.112,0,0,0-.082-.03.113.113,0,0,0-.084.134.116.116,0,0,0,.119.11" transform="translate(183.479 -118.973)"/>
                  <path id="Trazado_45" data-name="Trazado 45" class="cls-9" d="M-172.511,125.921l.07-.007-.01-.144.159-.011a.127.127,0,0,0,.113-.131.126.126,0,0,0-.131-.113l-.225.015Zm.055-.223.151-.009a.054.054,0,0,0,.046-.055.048.048,0,0,0-.016-.034.048.048,0,0,0-.035-.012l-.152.008Z" transform="translate(183.383 -118.962)"/>
                  <path id="Trazado_46" data-name="Trazado 46" class="cls-10" d="M-172.152,125.941c0-.056-.01-.177-.1-.173l-.105.007c.121-.007.131.116.136.167" transform="translate(183.354 -119.003)"/>
                  <path id="Trazado_47" data-name="Trazado 47" class="cls-9" d="M-171.914,125.889l.182,0a.167.167,0,0,0,.167-.167v-.056a.167.167,0,0,0-.167-.167h-.182Zm.069-.075h.106a.1.1,0,0,0,.074-.032.1.1,0,0,0,.029-.076v-.041a.1.1,0,0,0-.1-.1h-.108Z" transform="translate(183.282 -118.959)"/>
                  <path id="Trazado_48" data-name="Trazado 48" class="cls-10" d="M-171.328,125.884l.353.013v-.074l-.283-.01v-.1l.224.006v-.066l-.221-.008v-.077l.27.009V125.5l-.335-.012Z" transform="translate(183.187 -118.958)"/>
                  <path id="Trazado_49" data-name="Trazado 49" class="cls-10" d="M-170.732,125.908l.067.006.023-.266.052.273.064.006.1-.26-.023.266.065.007.034-.39-.095-.008-.1.26-.054-.274-.1-.008Z" transform="translate(183.09 -118.963)"/>
                  <path id="Trazado_50" data-name="Trazado 50" class="cls-10" d="M-169.77,126.026l.293.049.008-.065-.221-.038.015-.084.183.031.008-.067-.178-.03.008-.061.216.038.008-.066-.278-.049Z" transform="translate(182.933 -118.99)"/>
                  <path id="Trazado_51" data-name="Trazado 51" class="cls-9" d="M-168.883,126.194l.069.018.039-.14.149.038a.123.123,0,0,0,.152-.084.127.127,0,0,0-.084-.151l-.216-.056Zm.127-.193.144.039a.047.047,0,0,0,.038,0,.047.047,0,0,0,.022-.031.05.05,0,0,0-.034-.061l-.146-.038Z" transform="translate(182.788 -119.012)"/>
                  <path id="Trazado_52" data-name="Trazado 52" class="cls-9" d="M-168.311,126.346l.07.021.044-.137.146.047a.124.124,0,0,0,.095-.01.124.124,0,0,0,.06-.074.12.12,0,0,0-.007-.093.121.121,0,0,0-.071-.06l-.216-.068Zm.136-.186.143.046a.051.051,0,0,0,.063-.033.048.048,0,0,0,0-.038.048.048,0,0,0-.03-.024l-.142-.046Z" transform="translate(182.695 -119.036)"/>
                  <path id="Trazado_53" data-name="Trazado 53" class="cls-10" d="M-167.958,126.494c.018-.053.054-.167-.024-.194l-.1-.033c.115.037.079.153.06.208" transform="translate(182.658 -119.085)"/>
                  <path id="Trazado_54" data-name="Trazado 54" class="cls-9" d="M-167.573,126.6a.187.187,0,0,0,.233-.121.184.184,0,0,0,0-.142.184.184,0,0,0-.1-.1.185.185,0,0,0-.142.011.185.185,0,0,0-.092.108.188.188,0,0,0,.1.246m.024-.069a.115.115,0,0,0,.141-.079.115.115,0,0,0-.053-.152.119.119,0,0,0-.142.084.116.116,0,0,0,.054.151" transform="translate(182.593 -119.078)"/>
                  <path id="Trazado_55" data-name="Trazado 55" class="cls-9" d="M-167.02,126.828a.19.19,0,0,0,.24-.109.188.188,0,0,0-.084-.251.183.183,0,0,0-.142,0,.183.183,0,0,0-.1.1.188.188,0,0,0,.084.251m.029-.068a.11.11,0,0,0,.086-.005.11.11,0,0,0,.056-.066.115.115,0,0,0-.044-.154.113.113,0,0,0-.142.072.111.111,0,0,0-.01.086.111.111,0,0,0,.054.067" transform="translate(182.501 -119.115)"/>
                  <path id="Trazado_56" data-name="Trazado 56" class="cls-10" d="M-166.883,126.7l.137.059-.026.051-.132-.06Z" transform="translate(182.466 -119.155)"/>
                  <path id="Trazado_57" data-name="Trazado 57" class="cls-10" d="M-166.792,126.739l.053.023-.084.178-.048-.023Z" transform="translate(182.461 -119.161)"/>
                  <path id="Trazado_58" data-name="Trazado 58" class="cls-9" d="M-166.65,126.986l.064.032.064-.131.139.072a.122.122,0,0,0,.1.008.122.122,0,0,0,.072-.063.12.12,0,0,0,.009-.1.121.121,0,0,0-.063-.072l-.2-.1Zm.16-.162.134.067a.049.049,0,0,0,.038,0,.049.049,0,0,0,.029-.025.05.05,0,0,0-.021-.067l-.137-.067Z" transform="translate(182.425 -119.145)"/>
                  <path id="Trazado_59" data-name="Trazado 59" class="cls-10" d="M-166.318,127.182c.024-.049.079-.159.005-.2l-.1-.049c.113.057.057.167.034.215" transform="translate(182.385 -119.193)"/>
                  <path id="Trazado_60" data-name="Trazado 60" class="cls-10" d="M-166.125,127.256l.307.172.033-.063-.245-.14.048-.084.194.111.033-.06-.193-.108.039-.069.23.132.039-.063-.295-.167Z" transform="translate(182.339 -119.19)"/>
                  <path id="Trazado_61" data-name="Trazado 61" class="cls-10" d="M-165.461,127.506c-.022.032,0,.069.045.1s.079.028.094.008c.042-.069-.2-.167-.128-.282s.177-.023.219,0a.127.127,0,0,1,.067.076.127.127,0,0,1-.01.1l-.072-.047c.025-.033,0-.069-.04-.09s-.066-.037-.084,0c-.038.053.206.154.129.272-.05.084-.146.047-.209.008s-.136-.116-.084-.2Z" transform="translate(182.246 -119.25)"/>
                  <path id="Trazado_62" data-name="Trazado 62" class="cls-10" d="M-164.961,127.838c-.025.031-.007.069.039.1s.084.034.1.013c.044-.064-.2-.176-.113-.288.07-.1.18-.013.219.014a.127.127,0,0,1,.062.081.127.127,0,0,1-.017.1l-.067-.049c.022-.033,0-.068-.038-.1s-.06-.037-.084,0c-.039.052.194.167.116.28-.06.084-.155.04-.212,0s-.131-.122-.074-.2Z" transform="translate(182.165 -119.305)"/>
                  <path id="Trazado_63" data-name="Trazado 63" class="cls-9" d="M-164.485,128.351a.186.186,0,0,0,.259-.044.186.186,0,0,0-.015-.261.183.183,0,0,0-.138-.032.183.183,0,0,0-.12.076.186.186,0,0,0,.014.261m.046-.058a.113.113,0,0,0,.086.018.113.113,0,0,0,.073-.05.116.116,0,0,0-.007-.159.111.111,0,0,0-.084-.018.111.111,0,0,0-.071.048.109.109,0,0,0-.035.08.109.109,0,0,0,.035.08" transform="translate(182.082 -119.369)"/>
                  <path id="Trazado_64" data-name="Trazado 64" class="cls-8" d="M-172.719,126.386l-.054.167.084.028Z" transform="translate(183.422 -119.104)"/>
                  <path id="Trazado_65" data-name="Trazado 65" class="cls-8" d="M-172.715,126.386l.055.167-.084.028Z" transform="translate(183.417 -119.104)"/>
                  <path id="Trazado_66" data-name="Trazado 66" class="cls-8" d="M-172.544,126.531h-.175v.084Z" transform="translate(183.413 -119.128)"/>
                  <path id="Trazado_67" data-name="Trazado 67" class="cls-8" d="M-172.548,126.531l-.139.1-.055-.07Z" transform="translate(183.417 -119.128)"/>
                  <path id="Trazado_68" data-name="Trazado 68" class="cls-8" d="M-172.908,126.531l.142.1.053-.07Z" transform="translate(183.444 -119.128)"/>
                  <path id="Trazado_69" data-name="Trazado 69" class="cls-8" d="M-172.908,126.531h.177v.084Z" transform="translate(183.444 -119.128)"/>
                  <path id="Trazado_70" data-name="Trazado 70" class="cls-8" d="M-172.613,126.732l-.054-.167-.084.028Z" transform="translate(183.418 -119.133)"/>
                  <path id="Trazado_71" data-name="Trazado 71" class="cls-8" d="M-172.614,126.731l-.142-.1.053-.071Z" transform="translate(183.419 -119.132)"/>
                  <path id="Trazado_72" data-name="Trazado 72" class="cls-8" d="M-172.832,126.731l.142-.1-.051-.071Z" transform="translate(183.432 -119.132)"/>
                  <path id="Trazado_73" data-name="Trazado 73" class="cls-8" d="M-172.832,126.732l.055-.167.084.028Z" transform="translate(183.432 -119.133)"/>
                  <path id="Trazado_74" data-name="Trazado 74" class="cls-8" d="M-172.284,128.443l-.055.167.084.027Z" transform="translate(183.351 -119.439)"/>
                  <path id="Trazado_75" data-name="Trazado 75" class="cls-8" d="M-172.279,128.443l.053.167-.084.027Z" transform="translate(183.347 -119.439)"/>
                  <path id="Trazado_76" data-name="Trazado 76" class="cls-8" d="M-172.112,128.588h-.173v.088Z" transform="translate(183.343 -119.463)"/>
                  <path id="Trazado_77" data-name="Trazado 77" class="cls-8" d="M-172.115,128.588l-.139.1-.052-.073Z" transform="translate(183.346 -119.463)"/>
                  <path id="Trazado_78" data-name="Trazado 78" class="cls-8" d="M-172.473,128.588l.139.1.055-.073Z" transform="translate(183.373 -119.463)"/>
                  <path id="Trazado_79" data-name="Trazado 79" class="cls-8" d="M-172.473,128.588h.177v.088Z" transform="translate(183.373 -119.463)"/>
                  <path id="Trazado_80" data-name="Trazado 80" class="cls-8" d="M-172.177,128.79l-.054-.167-.084.027Z" transform="translate(183.347 -119.468)"/>
                  <path id="Trazado_81" data-name="Trazado 81" class="cls-8" d="M-172.178,128.789l-.142-.1.05-.069Z" transform="translate(183.348 -119.467)"/>
                  <path id="Trazado_82" data-name="Trazado 82" class="cls-8" d="M-172.4,128.789l.146-.1-.054-.069Z" transform="translate(183.361 -119.467)"/>
                  <path id="Trazado_83" data-name="Trazado 83" class="cls-8" d="M-172.4,128.79l.054-.167.084.027Z" transform="translate(183.361 -119.468)"/>
                  <path id="Trazado_84" data-name="Trazado 84" class="cls-8" d="M-172.881,128.951l-.033.113.054.018Z" transform="translate(183.445 -119.522)"/>
                  <path id="Trazado_85" data-name="Trazado 85" class="cls-8" d="M-172.878,128.951l.036.113-.054.018Z" transform="translate(183.442 -119.522)"/>
                  <path id="Trazado_86" data-name="Trazado 86" class="cls-8" d="M-172.765,129.049h-.118v.059Z" transform="translate(183.44 -119.538)"/>
                  <path id="Trazado_87" data-name="Trazado 87" class="cls-8" d="M-172.767,129.049l-.093.069-.034-.048Z" transform="translate(183.442 -119.538)"/>
                  <path id="Trazado_88" data-name="Trazado 88" class="cls-8" d="M-173.006,129.049l.093.069.034-.048Z" transform="translate(183.46 -119.538)"/>
                  <path id="Trazado_89" data-name="Trazado 89" class="cls-8" d="M-173.006,129.049h.116v.059Z" transform="translate(183.46 -119.538)"/>
                  <path id="Trazado_90" data-name="Trazado 90" class="cls-8" d="M-172.81,129.183l-.036-.111-.054.018Z" transform="translate(183.443 -119.541)"/>
                  <path id="Trazado_91" data-name="Trazado 91" class="cls-8" d="M-172.811,129.182l-.093-.069.034-.049Z" transform="translate(183.443 -119.54)"/>
                  <path id="Trazado_92" data-name="Trazado 92" class="cls-8" d="M-172.955,129.182l.093-.069-.033-.049Z" transform="translate(183.452 -119.54)"/>
                  <path id="Trazado_93" data-name="Trazado 93" class="cls-8" d="M-172.955,129.183l.034-.111.054.018Z" transform="translate(183.452 -119.541)"/>
                  <path id="Trazado_94" data-name="Trazado 94" class="cls-8" d="M-171.8,128.253l-.028.079.039.015Z" transform="translate(183.268 -119.408)"/>
                  <path id="Trazado_95" data-name="Trazado 95" class="cls-8" d="M-171.8,128.253l.024.079-.039.015Z" transform="translate(183.266 -119.408)"/>
                  <path id="Trazado_96" data-name="Trazado 96" class="cls-8" d="M-171.716,128.323h-.084v.041Z" transform="translate(183.264 -119.419)"/>
                  <path id="Trazado_97" data-name="Trazado 97" class="cls-8" d="M-171.717,128.323l-.067.049-.023-.034Z" transform="translate(183.265 -119.419)"/>
                  <path id="Trazado_98" data-name="Trazado 98" class="cls-8" d="M-171.893,128.323l.07.049.023-.034Z" transform="translate(183.279 -119.419)"/>
                  <path id="Trazado_99" data-name="Trazado 99" class="cls-8" d="M-171.893,128.323h.084v.041Z" transform="translate(183.279 -119.419)"/>
                  <path id="Trazado_100" data-name="Trazado 100" class="cls-8" d="M-171.748,128.419l-.028-.084-.036.014Z" transform="translate(183.265 -119.421)"/>
                  <path id="Trazado_101" data-name="Trazado 101" class="cls-8" d="M-171.749,128.419l-.067-.05.024-.034Z" transform="translate(183.266 -119.421)"/>
                  <path id="Trazado_102" data-name="Trazado 102" class="cls-8" d="M-171.854,128.419l.067-.05-.024-.034Z" transform="translate(183.272 -119.421)"/>
                  <path id="Trazado_103" data-name="Trazado 103" class="cls-8" d="M-171.854,128.419l.024-.084.039.014Z" transform="translate(183.272 -119.421)"/>
                  <path id="Trazado_104" data-name="Trazado 104" class="cls-8" d="M-171.263,128.964l-.046.14.065.023Z" transform="translate(183.184 -119.524)"/>
                  <path id="Trazado_105" data-name="Trazado 105" class="cls-8" d="M-171.259,128.964l.043.14-.067.023Z" transform="translate(183.179 -119.524)"/>
                  <path id="Trazado_106" data-name="Trazado 106" class="cls-8" d="M-171.12,129.086h-.146v.072Z" transform="translate(183.177 -119.544)"/>
                  <path id="Trazado_107" data-name="Trazado 107" class="cls-8" d="M-171.123,129.086l-.118.084-.043-.06Z" transform="translate(183.179 -119.544)"/>
                  <path id="Trazado_108" data-name="Trazado 108" class="cls-8" d="M-171.422,129.086l.118.084.043-.06Z" transform="translate(183.202 -119.544)"/>
                  <path id="Trazado_109" data-name="Trazado 109" class="cls-8" d="M-171.422,129.086h.146v.072Z" transform="translate(183.202 -119.544)"/>
                  <path id="Trazado_110" data-name="Trazado 110" class="cls-8" d="M-171.175,129.251l-.046-.137-.07.023Z" transform="translate(183.181 -119.548)"/>
                  <path id="Trazado_111" data-name="Trazado 111" class="cls-8" d="M-171.175,129.25l-.12-.084.043-.058Z" transform="translate(183.181 -119.547)"/>
                  <path id="Trazado_112" data-name="Trazado 112" class="cls-8" d="M-171.356,129.25l.115-.084-.043-.058Z" transform="translate(183.191 -119.547)"/>
                  <path id="Trazado_113" data-name="Trazado 113" class="cls-8" d="M-171.356,129.251l.043-.137.069.023Z" transform="translate(183.191 -119.548)"/>
                  <path id="Trazado_114" data-name="Trazado 114" class="cls-8" d="M-171.409,129.45l-.046.14.069.023Z" transform="translate(183.207 -119.603)"/>
                  <path id="Trazado_115" data-name="Trazado 115" class="cls-8" d="M-171.4,129.45l.044.14-.069.023Z" transform="translate(183.203 -119.603)"/>
                  <path id="Trazado_116" data-name="Trazado 116" class="cls-8" d="M-171.264,129.572h-.146v.071Z" transform="translate(183.2 -119.623)"/>
                  <path id="Trazado_117" data-name="Trazado 117" class="cls-8" d="M-171.268,129.572l-.12.084-.043-.059Z" transform="translate(183.203 -119.623)"/>
                  <path id="Trazado_118" data-name="Trazado 118" class="cls-8" d="M-171.566,129.572l.118.084.043-.059Z" transform="translate(183.225 -119.623)"/>
                  <path id="Trazado_119" data-name="Trazado 119" class="cls-8" d="M-171.566,129.572h.146v.071Z" transform="translate(183.225 -119.623)"/>
                  <path id="Trazado_120" data-name="Trazado 120" class="cls-8" d="M-171.322,129.74l-.043-.14-.07.023Z" transform="translate(183.204 -119.627)"/>
                  <path id="Trazado_121" data-name="Trazado 121" class="cls-8" d="M-171.323,129.74l-.12-.084.046-.057Z" transform="translate(183.205 -119.627)"/>
                  <path id="Trazado_122" data-name="Trazado 122" class="cls-8" d="M-171.5,129.74l.118-.084-.043-.057Z" transform="translate(183.215 -119.627)"/>
                  <path id="Trazado_123" data-name="Trazado 123" class="cls-8" d="M-171.5,129.74l.044-.14.07.023Z" transform="translate(183.215 -119.627)"/>
                  <path id="Trazado_124" data-name="Trazado 124" class="cls-8" d="M-167.211,125.746l-.054.167.084.026Z" transform="translate(182.525 -119)"/>
                  <path id="Trazado_125" data-name="Trazado 125" class="cls-8" d="M-167.206,125.746l.055.167-.084.026Z" transform="translate(182.52 -119)"/>
                  <path id="Trazado_126" data-name="Trazado 126" class="cls-8" d="M-167.034,125.891h-.175v.091Z" transform="translate(182.516 -119.023)"/>
                  <path id="Trazado_127" data-name="Trazado 127" class="cls-8" d="M-167.038,125.891l-.142.1-.051-.072Z" transform="translate(182.519 -119.023)"/>
                  <path id="Trazado_128" data-name="Trazado 128" class="cls-8" d="M-167.395,125.891l.144.1.051-.072Z" transform="translate(182.546 -119.023)"/>
                  <path id="Trazado_129" data-name="Trazado 129" class="cls-8" d="M-167.395,125.891h.177v.091Z" transform="translate(182.546 -119.023)"/>
                  <path id="Trazado_130" data-name="Trazado 130" class="cls-8" d="M-167.1,126.094l-.055-.167-.084.028Z" transform="translate(182.52 -119.029)"/>
                  <path id="Trazado_131" data-name="Trazado 131" class="cls-8" d="M-167.1,126.093l-.144-.1.053-.072Z" transform="translate(182.521 -119.027)"/>
                  <path id="Trazado_132" data-name="Trazado 132" class="cls-8" d="M-167.318,126.093l.142-.1-.051-.072Z" transform="translate(182.533 -119.027)"/>
                  <path id="Trazado_133" data-name="Trazado 133" class="cls-8" d="M-167.318,126.094l.055-.167.084.028Z" transform="translate(182.533 -119.029)"/>
                  <path id="Trazado_134" data-name="Trazado 134" class="cls-8" d="M-165.3,128.983l-.054.167.084.028Z" transform="translate(182.213 -119.527)"/>
                  <path id="Trazado_135" data-name="Trazado 135" class="cls-8" d="M-165.29,128.983l.056.167-.084.028Z" transform="translate(182.208 -119.527)"/>
                  <path id="Trazado_136" data-name="Trazado 136" class="cls-8" d="M-165.118,129.128h-.177v.084Z" transform="translate(182.204 -119.55)"/>
                  <path id="Trazado_137" data-name="Trazado 137" class="cls-8" d="M-165.122,129.128l-.141.1-.054-.072Z" transform="translate(182.207 -119.55)"/>
                  <path id="Trazado_138" data-name="Trazado 138" class="cls-8" d="M-165.484,129.128l.144.1.051-.072Z" transform="translate(182.235 -119.55)"/>
                  <path id="Trazado_139" data-name="Trazado 139" class="cls-8" d="M-165.484,129.128h.177v.084Z" transform="translate(182.235 -119.55)"/>
                  <path id="Trazado_140" data-name="Trazado 140" class="cls-8" d="M-165.183,129.329l-.056-.167-.084.026Z" transform="translate(182.209 -119.556)"/>
                  <path id="Trazado_141" data-name="Trazado 141" class="cls-8" d="M-165.184,129.328l-.144-.1.053-.072Z" transform="translate(182.209 -119.555)"/>
                  <path id="Trazado_142" data-name="Trazado 142" class="cls-8" d="M-165.406,129.328l.142-.1-.052-.072Z" transform="translate(182.222 -119.555)"/>
                  <path id="Trazado_143" data-name="Trazado 143" class="cls-8" d="M-165.406,129.329l.054-.167.084.026Z" transform="translate(182.222 -119.556)"/>
                  <path id="Trazado_144" data-name="Trazado 144" class="cls-8" d="M-164.608,129.1l-.039.111.059.018Z" transform="translate(182.098 -119.546)"/>
                  <path id="Trazado_145" data-name="Trazado 145" class="cls-8" d="M-164.6,129.1l.036.111-.059.018Z" transform="translate(182.095 -119.546)"/>
                  <path id="Trazado_146" data-name="Trazado 146" class="cls-8" d="M-164.5,129.2h-.115v.057Z" transform="translate(182.092 -119.562)"/>
                  <path id="Trazado_147" data-name="Trazado 147" class="cls-8" d="M-164.5,129.2l-.093.069-.034-.049Z" transform="translate(182.095 -119.562)"/>
                  <path id="Trazado_148" data-name="Trazado 148" class="cls-8" d="M-164.736,129.2l.093.069.038-.049Z" transform="translate(182.113 -119.562)"/>
                  <path id="Trazado_149" data-name="Trazado 149" class="cls-8" d="M-164.736,129.2h.118v.057Z" transform="translate(182.113 -119.562)"/>
                  <path id="Trazado_150" data-name="Trazado 150" class="cls-8" d="M-164.54,129.33l-.033-.112-.057.019Z" transform="translate(182.096 -119.565)"/>
                  <path id="Trazado_151" data-name="Trazado 151" class="cls-8" d="M-164.541,129.329l-.093-.069.036-.049Z" transform="translate(182.096 -119.564)"/>
                  <path id="Trazado_152" data-name="Trazado 152" class="cls-8" d="M-164.686,129.329l.093-.069-.033-.049Z" transform="translate(182.105 -119.564)"/>
                  <path id="Trazado_153" data-name="Trazado 153" class="cls-8" d="M-164.686,129.33l.036-.112.054.019Z" transform="translate(182.105 -119.565)"/>
                  <path id="Trazado_154" data-name="Trazado 154" class="cls-8" d="M-165.092,129.45l-.043.14.067.023Z" transform="translate(182.178 -119.603)"/>
                  <path id="Trazado_155" data-name="Trazado 155" class="cls-8" d="M-165.088,129.45l.044.14-.065.023Z" transform="translate(182.174 -119.603)"/>
                  <path id="Trazado_156" data-name="Trazado 156" class="cls-8" d="M-164.946,129.572h-.146v.071Z" transform="translate(182.171 -119.623)"/>
                  <path id="Trazado_157" data-name="Trazado 157" class="cls-8" d="M-164.949,129.572l-.115.084-.046-.059Z" transform="translate(182.174 -119.623)"/>
                  <path id="Trazado_158" data-name="Trazado 158" class="cls-8" d="M-165.248,129.572l.119.084.043-.059Z" transform="translate(182.196 -119.623)"/>
                  <path id="Trazado_159" data-name="Trazado 159" class="cls-8" d="M-165.248,129.572h.146v.071Z" transform="translate(182.196 -119.623)"/>
                  <path id="Trazado_160" data-name="Trazado 160" class="cls-8" d="M-165,129.74l-.044-.14-.07.023Z" transform="translate(182.175 -119.627)"/>
                  <path id="Trazado_161" data-name="Trazado 161" class="cls-8" d="M-165,129.74l-.118-.084.043-.057Z" transform="translate(182.176 -119.627)"/>
                  <path id="Trazado_162" data-name="Trazado 162" class="cls-8" d="M-165.186,129.74l.118-.084-.043-.057Z" transform="translate(182.186 -119.627)"/>
                  <path id="Trazado_163" data-name="Trazado 163" class="cls-8" d="M-165.186,129.74l.044-.14.07.023Z" transform="translate(182.186 -119.627)"/>
                  <path id="Trazado_164" data-name="Trazado 164" class="cls-8" d="M-166.271,130.476l-.046.138.069.023Z" transform="translate(182.37 -119.77)"/>
                  <path id="Trazado_165" data-name="Trazado 165" class="cls-8" d="M-166.267,130.476l.044.138-.07.023Z" transform="translate(182.367 -119.77)"/>
                  <path id="Trazado_166" data-name="Trazado 166" class="cls-8" d="M-166.128,130.6h-.146v.074Z" transform="translate(182.363 -119.79)"/>
                  <path id="Trazado_167" data-name="Trazado 167" class="cls-8" d="M-166.132,130.6l-.12.084-.043-.059Z" transform="translate(182.367 -119.79)"/>
                  <path id="Trazado_168" data-name="Trazado 168" class="cls-8" d="M-166.426,130.6l.118.084.039-.059Z" transform="translate(182.388 -119.79)"/>
                  <path id="Trazado_169" data-name="Trazado 169" class="cls-8" d="M-166.426,130.6h.146v.074Z" transform="translate(182.388 -119.79)"/>
                  <path id="Trazado_170" data-name="Trazado 170" class="cls-8" d="M-166.184,130.765l-.041-.139-.074.022Z" transform="translate(182.368 -119.794)"/>
                  <path id="Trazado_171" data-name="Trazado 171" class="cls-8" d="M-166.185,130.764l-.118-.084.043-.058Z" transform="translate(182.368 -119.794)"/>
                  <path id="Trazado_172" data-name="Trazado 172" class="cls-8" d="M-166.363,130.764l.118-.084-.043-.058Z" transform="translate(182.378 -119.794)"/>
                  <path id="Trazado_173" data-name="Trazado 173" class="cls-8" d="M-166.363,130.765l.044-.139.07.022Z" transform="translate(182.378 -119.794)"/>
                  <path id="Trazado_174" data-name="Trazado 174" class="cls-8" d="M-166.277,131l-.034.11.055.019Z" transform="translate(182.369 -119.855)"/>
                  <path id="Trazado_175" data-name="Trazado 175" class="cls-8" d="M-166.274,131l.036.11-.055.019Z" transform="translate(182.367 -119.855)"/>
                  <path id="Trazado_176" data-name="Trazado 176" class="cls-8" d="M-166.159,131.1h-.115v.058Z" transform="translate(182.363 -119.872)"/>
                  <path id="Trazado_177" data-name="Trazado 177" class="cls-8" d="M-166.162,131.1l-.1.067-.034-.047Z" transform="translate(182.367 -119.872)"/>
                  <path id="Trazado_178" data-name="Trazado 178" class="cls-8" d="M-166.4,131.1l.093.067.034-.047Z" transform="translate(182.384 -119.872)"/>
                  <path id="Trazado_179" data-name="Trazado 179" class="cls-8" d="M-166.4,131.1h.116v.058Z" transform="translate(182.384 -119.872)"/>
                  <path id="Trazado_180" data-name="Trazado 180" class="cls-8" d="M-166.206,131.234l-.036-.109-.057.017Z" transform="translate(182.368 -119.876)"/>
                  <path id="Trazado_181" data-name="Trazado 181" class="cls-8" d="M-166.207,131.233l-.1-.067.036-.048Z" transform="translate(182.368 -119.875)"/>
                  <path id="Trazado_182" data-name="Trazado 182" class="cls-8" d="M-166.35,131.233l.093-.067-.036-.048Z" transform="translate(182.376 -119.875)"/>
                  <path id="Trazado_183" data-name="Trazado 183" class="cls-8" d="M-166.35,131.234l.036-.109.054.017Z" transform="translate(182.376 -119.876)"/>
                  <path id="Trazado_184" data-name="Trazado 184" class="cls-8" d="M-165.781,130.124l-.039.112.054.018Z" transform="translate(182.29 -119.713)"/>
                  <path id="Trazado_185" data-name="Trazado 185" class="cls-8" d="M-165.777,130.124l.033.112-.054.018Z" transform="translate(182.286 -119.713)"/>
                  <path id="Trazado_186" data-name="Trazado 186" class="cls-8" d="M-165.666,130.221h-.12v.059Z" transform="translate(182.284 -119.729)"/>
                  <path id="Trazado_187" data-name="Trazado 187" class="cls-8" d="M-165.668,130.221l-.095.07-.036-.047Z" transform="translate(182.286 -119.729)"/>
                  <path id="Trazado_188" data-name="Trazado 188" class="cls-8" d="M-165.908,130.221l.095.07.033-.047Z" transform="translate(182.304 -119.729)"/>
                  <path id="Trazado_189" data-name="Trazado 189" class="cls-8" d="M-165.908,130.221h.12v.059Z" transform="translate(182.304 -119.729)"/>
                  <path id="Trazado_190" data-name="Trazado 190" class="cls-8" d="M-165.711,130.355l-.038-.111-.054.018Z" transform="translate(182.287 -119.732)"/>
                  <path id="Trazado_191" data-name="Trazado 191" class="cls-8" d="M-165.711,130.355l-.095-.068.038-.048Z" transform="translate(182.287 -119.731)"/>
                  <path id="Trazado_192" data-name="Trazado 192" class="cls-8" d="M-165.857,130.355l.095-.068-.034-.048Z" transform="translate(182.296 -119.731)"/>
                  <path id="Trazado_193" data-name="Trazado 193" class="cls-8" d="M-165.857,130.355l.038-.111.054.018Z" transform="translate(182.296 -119.732)"/>
                  <path id="Trazado_194" data-name="Trazado 194" class="cls-8" d="M-165.392,129.844l-.044.138.067.023Z" transform="translate(182.227 -119.667)"/>
                  <path id="Trazado_195" data-name="Trazado 195" class="cls-8" d="M-165.388,129.844l.046.138-.072.023Z" transform="translate(182.223 -119.667)"/>
                  <path id="Trazado_196" data-name="Trazado 196" class="cls-8" d="M-165.247,129.965h-.146v.072Z" transform="translate(182.22 -119.687)"/>
                  <path id="Trazado_197" data-name="Trazado 197" class="cls-8" d="M-165.25,129.965l-.115.084-.043-.06Z" transform="translate(182.222 -119.687)"/>
                  <path id="Trazado_198" data-name="Trazado 198" class="cls-8" d="M-165.549,129.965l.12.084.043-.06Z" transform="translate(182.245 -119.687)"/>
                  <path id="Trazado_199" data-name="Trazado 199" class="cls-8" d="M-165.549,129.965h.146v.072Z" transform="translate(182.245 -119.687)"/>
                  <path id="Trazado_200" data-name="Trazado 200" class="cls-8" d="M-165.3,130.13l-.043-.136-.072.022Z" transform="translate(182.224 -119.692)"/>
                  <path id="Trazado_201" data-name="Trazado 201" class="cls-8" d="M-165.3,130.129l-.118-.084.043-.059Z" transform="translate(182.225 -119.69)"/>
                  <path id="Trazado_202" data-name="Trazado 202" class="cls-8" d="M-165.486,130.129l.121-.084-.046-.059Z" transform="translate(182.235 -119.69)"/>
                  <path id="Trazado_203" data-name="Trazado 203" class="cls-8" d="M-165.486,130.13l.048-.136.067.022Z" transform="translate(182.235 -119.692)"/>
                  <path id="Trazado_204" data-name="Trazado 204" class="cls-8" d="M-166.291,130.031l-.033.111.054.018Z" transform="translate(182.372 -119.698)"/>
                  <path id="Trazado_205" data-name="Trazado 205" class="cls-8" d="M-166.288,130.031l.039.111-.057.018Z" transform="translate(182.369 -119.698)"/>
                  <path id="Trazado_206" data-name="Trazado 206" class="cls-8" d="M-166.169,130.129h-.12v.058Z" transform="translate(182.366 -119.714)"/>
                  <path id="Trazado_207" data-name="Trazado 207" class="cls-8" d="M-166.171,130.129l-.1.068-.034-.049Z" transform="translate(182.368 -119.714)"/>
                  <path id="Trazado_208" data-name="Trazado 208" class="cls-8" d="M-166.414,130.129l.093.068.034-.049Z" transform="translate(182.386 -119.714)"/>
                  <path id="Trazado_209" data-name="Trazado 209" class="cls-8" d="M-166.414,130.129h.118v.058Z" transform="translate(182.386 -119.714)"/>
                  <path id="Trazado_210" data-name="Trazado 210" class="cls-8" d="M-166.218,130.264l-.038-.113-.057.018Z" transform="translate(182.37 -119.717)"/>
                  <path id="Trazado_211" data-name="Trazado 211" class="cls-8" d="M-166.219,130.263l-.1-.071.033-.045Z" transform="translate(182.37 -119.716)"/>
                  <path id="Trazado_212" data-name="Trazado 212" class="cls-8" d="M-166.363,130.263l.093-.071-.034-.045Z" transform="translate(182.378 -119.716)"/>
                  <path id="Trazado_213" data-name="Trazado 213" class="cls-8" d="M-166.363,130.264l.036-.113.057.018Z" transform="translate(182.378 -119.717)"/>
                  <path id="Trazado_214" data-name="Trazado 214" class="cls-8" d="M-170.585,127.5l-.046.138.07.022Z" transform="translate(183.073 -119.285)"/>
                  <path id="Trazado_215" data-name="Trazado 215" class="cls-8" d="M-170.581,127.5l.044.138-.069.022Z" transform="translate(183.069 -119.285)"/>
                  <path id="Trazado_216" data-name="Trazado 216" class="cls-8" d="M-170.438,127.62h-.146v.073Z" transform="translate(183.065 -119.305)"/>
                  <path id="Trazado_217" data-name="Trazado 217" class="cls-8" d="M-170.441,127.62l-.118.084-.043-.06Z" transform="translate(183.068 -119.305)"/>
                  <path id="Trazado_218" data-name="Trazado 218" class="cls-8" d="M-170.744,127.62l.12.084.043-.06Z" transform="translate(183.092 -119.305)"/>
                  <path id="Trazado_219" data-name="Trazado 219" class="cls-8" d="M-170.744,127.62h.146v.073Z" transform="translate(183.092 -119.305)"/>
                  <path id="Trazado_220" data-name="Trazado 220" class="cls-8" d="M-170.5,127.788l-.043-.138-.07.022Z" transform="translate(183.07 -119.31)"/>
                  <path id="Trazado_221" data-name="Trazado 221" class="cls-8" d="M-170.5,127.787l-.12-.084.043-.059Z" transform="translate(183.071 -119.309)"/>
                  <path id="Trazado_222" data-name="Trazado 222" class="cls-8" d="M-170.682,127.787l.121-.084-.043-.059Z" transform="translate(183.081 -119.309)"/>
                  <path id="Trazado_223" data-name="Trazado 223" class="cls-8" d="M-170.682,127.788l.048-.138.067.022Z" transform="translate(183.081 -119.31)"/>
                  <path id="Trazado_224" data-name="Trazado 224" class="cls-8" d="M-167.389,127.087l-.033.112.054.018Z" transform="translate(182.55 -119.218)"/>
                  <path id="Trazado_225" data-name="Trazado 225" class="cls-8" d="M-167.386,127.087l.039.112-.057.018Z" transform="translate(182.548 -119.218)"/>
                  <path id="Trazado_226" data-name="Trazado 226" class="cls-8" d="M-167.269,127.186h-.118v.057Z" transform="translate(182.545 -119.234)"/>
                  <path id="Trazado_227" data-name="Trazado 227" class="cls-8" d="M-167.271,127.186l-.1.069-.033-.048Z" transform="translate(182.547 -119.234)"/>
                  <path id="Trazado_228" data-name="Trazado 228" class="cls-8" d="M-167.514,127.186l.095.069.033-.048Z" transform="translate(182.565 -119.234)"/>
                  <path id="Trazado_229" data-name="Trazado 229" class="cls-8" d="M-167.514,127.186h.12v.057Z" transform="translate(182.565 -119.234)"/>
                  <path id="Trazado_230" data-name="Trazado 230" class="cls-8" d="M-167.318,127.32l-.039-.112-.054.018Z" transform="translate(182.549 -119.238)"/>
                  <path id="Trazado_231" data-name="Trazado 231" class="cls-8" d="M-167.319,127.319l-.1-.07.034-.048Z" transform="translate(182.549 -119.237)"/>
                  <path id="Trazado_232" data-name="Trazado 232" class="cls-8" d="M-167.463,127.319l.095-.07-.034-.048Z" transform="translate(182.557 -119.237)"/>
                  <path id="Trazado_233" data-name="Trazado 233" class="cls-8" d="M-167.463,127.32l.036-.112.055.018Z" transform="translate(182.557 -119.238)"/>
                  <path id="Trazado_234" data-name="Trazado 234" class="cls-8" d="M-168.724,129.462l-.055.167.084.028Z" transform="translate(182.771 -119.605)"/>
                  <path id="Trazado_235" data-name="Trazado 235" class="cls-8" d="M-168.719,129.462l.054.167-.084.028Z" transform="translate(182.767 -119.605)"/>
                  <path id="Trazado_236" data-name="Trazado 236" class="cls-8" d="M-168.548,129.606h-.173v.088Z" transform="translate(182.762 -119.628)"/>
                  <path id="Trazado_237" data-name="Trazado 237" class="cls-8" d="M-168.551,129.606l-.141.1-.051-.073Z" transform="translate(182.766 -119.628)"/>
                  <path id="Trazado_238" data-name="Trazado 238" class="cls-8" d="M-168.912,129.606l.146.1.048-.073Z" transform="translate(182.793 -119.628)"/>
                  <path id="Trazado_239" data-name="Trazado 239" class="cls-8" d="M-168.912,129.606h.175v.088Z" transform="translate(182.793 -119.628)"/>
                  <path id="Trazado_240" data-name="Trazado 240" class="cls-8" d="M-168.616,129.809l-.052-.167-.084.026Z" transform="translate(182.767 -119.634)"/>
                  <path id="Trazado_241" data-name="Trazado 241" class="cls-8" d="M-168.617,129.808l-.141-.1.049-.07Z" transform="translate(182.768 -119.633)"/>
                  <path id="Trazado_242" data-name="Trazado 242" class="cls-8" d="M-168.836,129.808l.142-.1-.052-.07Z" transform="translate(182.781 -119.633)"/>
                  <path id="Trazado_243" data-name="Trazado 243" class="cls-8" d="M-168.836,129.809l.054-.167.084.026Z" transform="translate(182.781 -119.634)"/>
                  <path id="Trazado_244" data-name="Trazado 244" class="cls-8" d="M-168.154,128.525l-.046.139.07.021Z" transform="translate(182.677 -119.452)"/>
                  <path id="Trazado_245" data-name="Trazado 245" class="cls-8" d="M-168.15,128.525l.046.139-.07.021Z" transform="translate(182.673 -119.452)"/>
                  <path id="Trazado_246" data-name="Trazado 246" class="cls-8" d="M-168.01,128.646h-.147v.071Z" transform="translate(182.67 -119.472)"/>
                  <path id="Trazado_247" data-name="Trazado 247" class="cls-8" d="M-168.012,128.646l-.119.084-.043-.059Z" transform="translate(182.673 -119.472)"/>
                  <path id="Trazado_248" data-name="Trazado 248" class="cls-8" d="M-168.311,128.646l.118.084.043-.059Z" transform="translate(182.695 -119.472)"/>
                  <path id="Trazado_249" data-name="Trazado 249" class="cls-8" d="M-168.311,128.646h.146v.071Z" transform="translate(182.695 -119.472)"/>
                  <path id="Trazado_250" data-name="Trazado 250" class="cls-8" d="M-168.065,128.814l-.046-.14-.069.023Z" transform="translate(182.674 -119.477)"/>
                  <path id="Trazado_251" data-name="Trazado 251" class="cls-8" d="M-168.066,128.813l-.118-.084.043-.059Z" transform="translate(182.675 -119.476)"/>
                  <path id="Trazado_252" data-name="Trazado 252" class="cls-8" d="M-168.25,128.813l.12-.084-.043-.059Z" transform="translate(182.685 -119.476)"/>
                  <path id="Trazado_253" data-name="Trazado 253" class="cls-8" d="M-168.25,128.814l.046-.14.07.023Z" transform="translate(182.685 -119.477)"/>
                  <path id="Trazado_254" data-name="Trazado 254" class="cls-8" d="M-168.722,128.087l-.046.137.07.023Z" transform="translate(182.77 -119.381)"/>
                  <path id="Trazado_255" data-name="Trazado 255" class="cls-8" d="M-168.717,128.087l.044.137-.065.023Z" transform="translate(182.765 -119.381)"/>
                  <path id="Trazado_256" data-name="Trazado 256" class="cls-8" d="M-168.575,128.206h-.146v.074Z" transform="translate(182.762 -119.4)"/>
                  <path id="Trazado_257" data-name="Trazado 257" class="cls-8" d="M-168.578,128.206l-.118.084-.043-.058Z" transform="translate(182.765 -119.4)"/>
                  <path id="Trazado_258" data-name="Trazado 258" class="cls-8" d="M-168.877,128.206l.12.084.039-.058Z" transform="translate(182.787 -119.4)"/>
                  <path id="Trazado_259" data-name="Trazado 259" class="cls-8" d="M-168.877,128.206h.146v.074Z" transform="translate(182.787 -119.4)"/>
                  <path id="Trazado_260" data-name="Trazado 260" class="cls-8" d="M-168.631,128.373l-.044-.139-.07.021Z" transform="translate(182.766 -119.405)"/>
                  <path id="Trazado_261" data-name="Trazado 261" class="cls-8" d="M-168.632,128.372l-.118-.084.043-.059Z" transform="translate(182.767 -119.404)"/>
                  <path id="Trazado_262" data-name="Trazado 262" class="cls-8" d="M-168.815,128.372l.118-.084-.043-.059Z" transform="translate(182.777 -119.404)"/>
                  <path id="Trazado_263" data-name="Trazado 263" class="cls-8" d="M-168.815,128.373l.044-.139.07.021Z" transform="translate(182.777 -119.405)"/>
                  <path id="Trazado_264" data-name="Trazado 264" class="cls-8" d="M-169.214,128.56l-.036.112.057.018Z" transform="translate(182.848 -119.458)"/>
                  <path id="Trazado_265" data-name="Trazado 265" class="cls-8" d="M-169.21,128.56l.039.112-.057.018Z" transform="translate(182.845 -119.458)"/>
                  <path id="Trazado_266" data-name="Trazado 266" class="cls-8" d="M-169.095,128.656h-.116v.057Z" transform="translate(182.842 -119.474)"/>
                  <path id="Trazado_267" data-name="Trazado 267" class="cls-8" d="M-169.1,128.656l-.095.069-.036-.049Z" transform="translate(182.845 -119.474)"/>
                  <path id="Trazado_268" data-name="Trazado 268" class="cls-8" d="M-169.336,128.656l.093.069.033-.049Z" transform="translate(182.862 -119.474)"/>
                  <path id="Trazado_269" data-name="Trazado 269" class="cls-8" d="M-169.336,128.656h.115v.057Z" transform="translate(182.862 -119.474)"/>
                  <path id="Trazado_270" data-name="Trazado 270" class="cls-8" d="M-169.141,128.791l-.034-.111-.057.018Z" transform="translate(182.845 -119.478)"/>
                  <path id="Trazado_271" data-name="Trazado 271" class="cls-8" d="M-169.141,128.79l-.093-.069.036-.048Z" transform="translate(182.846 -119.477)"/>
                  <path id="Trazado_272" data-name="Trazado 272" class="cls-8" d="M-169.285,128.79l.093-.069-.034-.048Z" transform="translate(182.854 -119.477)"/>
                  <path id="Trazado_273" data-name="Trazado 273" class="cls-8" d="M-169.285,128.791l.036-.111.054.018Z" transform="translate(182.854 -119.478)"/>
                  <path id="Trazado_274" data-name="Trazado 274" class="cls-8" d="M-168.962,128.939l-.026.08.039.013Z" transform="translate(182.806 -119.52)"/>
                  <path id="Trazado_275" data-name="Trazado 275" class="cls-8" d="M-168.96,128.939l.024.08-.039.013Z" transform="translate(182.803 -119.52)"/>
                  <path id="Trazado_276" data-name="Trazado 276" class="cls-8" d="M-168.879,129.008h-.084v.042Z" transform="translate(182.801 -119.531)"/>
                  <path id="Trazado_277" data-name="Trazado 277" class="cls-8" d="M-168.88,129.008l-.065.05-.024-.034Z" transform="translate(182.803 -119.531)"/>
                  <path id="Trazado_278" data-name="Trazado 278" class="cls-8" d="M-169.055,129.008l.07.05.024-.034Z" transform="translate(182.816 -119.531)"/>
                  <path id="Trazado_279" data-name="Trazado 279" class="cls-8" d="M-169.055,129.008h.084v.042Z" transform="translate(182.816 -119.531)"/>
                  <path id="Trazado_280" data-name="Trazado 280" class="cls-8" d="M-168.912,129.1l-.024-.084-.039.013Z" transform="translate(182.804 -119.533)"/>
                  <path id="Trazado_281" data-name="Trazado 281" class="cls-8" d="M-168.913,129.1l-.067-.05.028-.034Z" transform="translate(182.804 -119.533)"/>
                  <path id="Trazado_282" data-name="Trazado 282" class="cls-8" d="M-169.018,129.1l.067-.05-.024-.034Z" transform="translate(182.81 -119.533)"/>
                  <path id="Trazado_283" data-name="Trazado 283" class="cls-8" d="M-169.018,129.1l.028-.084.039.013Z" transform="translate(182.81 -119.533)"/>
                  <path id="Trazado_284" data-name="Trazado 284" class="cls-8" d="M-167.255,130.6l-.046.14.07.023Z" transform="translate(182.531 -119.789)"/>
                  <path id="Trazado_285" data-name="Trazado 285" class="cls-8" d="M-167.251,130.6l.046.14-.072.023Z" transform="translate(182.527 -119.789)"/>
                  <path id="Trazado_286" data-name="Trazado 286" class="cls-8" d="M-167.11,130.715h-.146v.075Z" transform="translate(182.523 -119.809)"/>
                  <path id="Trazado_287" data-name="Trazado 287" class="cls-8" d="M-167.113,130.715l-.118.084-.043-.06Z" transform="translate(182.526 -119.809)"/>
                  <path id="Trazado_288" data-name="Trazado 288" class="cls-8" d="M-167.412,130.715l.116.084.046-.06Z" transform="translate(182.549 -119.809)"/>
                  <path id="Trazado_289" data-name="Trazado 289" class="cls-8" d="M-167.412,130.715h.146v.075Z" transform="translate(182.549 -119.809)"/>
                  <path id="Trazado_290" data-name="Trazado 290" class="cls-8" d="M-167.167,130.885l-.046-.14-.069.023Z" transform="translate(182.528 -119.814)"/>
                  <path id="Trazado_291" data-name="Trazado 291" class="cls-8" d="M-167.168,130.884l-.118-.084.043-.059Z" transform="translate(182.528 -119.813)"/>
                  <path id="Trazado_292" data-name="Trazado 292" class="cls-8" d="M-167.35,130.884l.118-.084-.043-.059Z" transform="translate(182.539 -119.813)"/>
                  <path id="Trazado_293" data-name="Trazado 293" class="cls-8" d="M-167.35,130.885l.044-.14.07.023Z" transform="translate(182.539 -119.814)"/>
                  <path id="Trazado_294" data-name="Trazado 294" class="cls-8" d="M-166.835,130.2l-.036.111.054.018Z" transform="translate(182.461 -119.725)"/>
                  <path id="Trazado_295" data-name="Trazado 295" class="cls-8" d="M-166.832,130.2l.036.111-.057.018Z" transform="translate(182.458 -119.725)"/>
                  <path id="Trazado_296" data-name="Trazado 296" class="cls-8" d="M-166.723,130.3h-.118v.055Z" transform="translate(182.456 -119.741)"/>
                  <path id="Trazado_297" data-name="Trazado 297" class="cls-8" d="M-166.725,130.3l-.093.067-.036-.046Z" transform="translate(182.458 -119.741)"/>
                  <path id="Trazado_298" data-name="Trazado 298" class="cls-8" d="M-166.963,130.3l.095.067.036-.046Z" transform="translate(182.476 -119.741)"/>
                  <path id="Trazado_299" data-name="Trazado 299" class="cls-8" d="M-166.963,130.3h.12v.055Z" transform="translate(182.476 -119.741)"/>
                  <path id="Trazado_300" data-name="Trazado 300" class="cls-8" d="M-166.763,130.428l-.036-.111-.054.018Z" transform="translate(182.458 -119.744)"/>
                  <path id="Trazado_301" data-name="Trazado 301" class="cls-8" d="M-166.764,130.427l-.093-.069.034-.048Z" transform="translate(182.458 -119.743)"/>
                  <path id="Trazado_302" data-name="Trazado 302" class="cls-8" d="M-166.908,130.427l.093-.069-.036-.048Z" transform="translate(182.467 -119.743)"/>
                  <path id="Trazado_303" data-name="Trazado 303" class="cls-8" d="M-166.908,130.428l.036-.111.055.018Z" transform="translate(182.467 -119.744)"/>
                  <path id="Trazado_304" data-name="Trazado 304" class="cls-8" d="M-167.64,130.078l-.036.111.054.019Z" transform="translate(182.592 -119.705)"/>
                  <path id="Trazado_305" data-name="Trazado 305" class="cls-8" d="M-167.636,130.078l.036.111-.054.019Z" transform="translate(182.588 -119.705)"/>
                  <path id="Trazado_306" data-name="Trazado 306" class="cls-8" d="M-167.523,130.174h-.116v.059Z" transform="translate(182.586 -119.721)"/>
                  <path id="Trazado_307" data-name="Trazado 307" class="cls-8" d="M-167.525,130.174l-.095.07-.033-.049Z" transform="translate(182.588 -119.721)"/>
                  <path id="Trazado_308" data-name="Trazado 308" class="cls-8" d="M-167.768,130.174l.095.07.033-.049Z" transform="translate(182.607 -119.721)"/>
                  <path id="Trazado_309" data-name="Trazado 309" class="cls-8" d="M-167.768,130.174h.12v.059Z" transform="translate(182.607 -119.721)"/>
                  <path id="Trazado_310" data-name="Trazado 310" class="cls-8" d="M-167.569,130.309l-.036-.111-.057.019Z" transform="translate(182.59 -119.725)"/>
                  <path id="Trazado_311" data-name="Trazado 311" class="cls-8" d="M-167.57,130.309l-.1-.069.036-.047Z" transform="translate(182.59 -119.724)"/>
                  <path id="Trazado_312" data-name="Trazado 312" class="cls-8" d="M-167.717,130.309l.095-.069-.034-.047Z" transform="translate(182.598 -119.724)"/>
                  <path id="Trazado_313" data-name="Trazado 313" class="cls-8" d="M-167.717,130.309l.036-.111.059.019Z" transform="translate(182.598 -119.725)"/>
                  <path id="Trazado_314" data-name="Trazado 314" class="cls-8" d="M-170.688,129.861l-.052.167.084.028Z" transform="translate(183.091 -119.67)"/>
                  <path id="Trazado_315" data-name="Trazado 315" class="cls-8" d="M-170.684,129.861l.054.167-.084.028Z" transform="translate(183.087 -119.67)"/>
                  <path id="Trazado_316" data-name="Trazado 316" class="cls-8" d="M-170.509,130.008h-.177v.084Z" transform="translate(183.082 -119.694)"/>
                  <path id="Trazado_317" data-name="Trazado 317" class="cls-8" d="M-170.513,130.008l-.146.1-.049-.071Z" transform="translate(183.086 -119.694)"/>
                  <path id="Trazado_318" data-name="Trazado 318" class="cls-8" d="M-170.879,130.008l.147.1.048-.071Z" transform="translate(183.114 -119.694)"/>
                  <path id="Trazado_319" data-name="Trazado 319" class="cls-8" d="M-170.879,130.008h.177v.084Z" transform="translate(183.114 -119.694)"/>
                  <path id="Trazado_320" data-name="Trazado 320" class="cls-8" d="M-170.581,130.208l-.052-.167-.084.026Z" transform="translate(183.087 -119.699)"/>
                  <path id="Trazado_321" data-name="Trazado 321" class="cls-8" d="M-170.582,130.207l-.141-.1.049-.071Z" transform="translate(183.088 -119.698)"/>
                  <path id="Trazado_322" data-name="Trazado 322" class="cls-8" d="M-170.8,130.207l.142-.1-.052-.071Z" transform="translate(183.101 -119.698)"/>
                  <path id="Trazado_323" data-name="Trazado 323" class="cls-8" d="M-170.8,130.208l.057-.167.084.026Z" transform="translate(183.101 -119.699)"/>
                  <path id="Trazado_324" data-name="Trazado 324" class="cls-8" d="M-168.716,131.232l-.018.056.026.009Z" transform="translate(182.764 -119.893)"/>
                  <path id="Trazado_325" data-name="Trazado 325" class="cls-8" d="M-168.714,131.232l.018.056-.024.009Z" transform="translate(182.762 -119.893)"/>
                  <path id="Trazado_326" data-name="Trazado 326" class="cls-8" d="M-168.657,131.282h-.06v.028Z" transform="translate(182.761 -119.901)"/>
                  <path id="Trazado_327" data-name="Trazado 327" class="cls-8" d="M-168.658,131.282l-.049.034-.015-.024Z" transform="translate(182.762 -119.901)"/>
                  <path id="Trazado_328" data-name="Trazado 328" class="cls-8" d="M-168.779,131.282l.049.034.015-.024Z" transform="translate(182.771 -119.901)"/>
                  <path id="Trazado_329" data-name="Trazado 329" class="cls-8" d="M-168.779,131.282h.057v.028Z" transform="translate(182.771 -119.901)"/>
                  <path id="Trazado_330" data-name="Trazado 330" class="cls-8" d="M-168.682,131.348l-.015-.055-.028.01Z" transform="translate(182.763 -119.903)"/>
                  <path id="Trazado_331" data-name="Trazado 331" class="cls-8" d="M-168.683,131.348l-.046-.033.015-.023Z" transform="translate(182.763 -119.903)"/>
                  <path id="Trazado_332" data-name="Trazado 332" class="cls-8" d="M-168.754,131.348l.046-.033-.015-.023Z" transform="translate(182.767 -119.903)"/>
                  <path id="Trazado_333" data-name="Trazado 333" class="cls-8" d="M-168.754,131.348l.019-.055.026.01Z" transform="translate(182.767 -119.903)"/>
                </g>
              </g>
            </g>
          </g>
        </g>
      </g>
    </g>
    <rect id="Rectángulo_5420" data-name="Rectángulo 5420" class="cls-11" width="28.096" height="16.388" rx="2" transform="translate(1861 -91.194)"/>
  </g>
</svg>
