<svg xmlns="http://www.w3.org/2000/svg" width="153.354" height="20.028" viewBox="0 0 153.354 20.028">
  <g id="Grupo_4" data-name="Grupo 4" transform="translate(-486.154 -335.873)">
    <path id="DATABOT" d="M8.255-16.107a6.221,6.221,0,0,1,2.786.6,5.844,5.844,0,0,1,2.057,1.68,7.571,7.571,0,0,1,1.262,2.492,10.43,10.43,0,0,1,.424,3.015,9.83,9.83,0,0,1-.762,3.928,6.615,6.615,0,0,1-2.209,2.815A5.915,5.915,0,0,1,8.255-.531h-5.2A1.271,1.271,0,0,1,2.106-.92a1.33,1.33,0,0,1-.381-.968V-14.75a1.33,1.33,0,0,1,.381-.968,1.271,1.271,0,0,1,.947-.389ZM8.037-3.09a3.391,3.391,0,0,0,2.242-.723,4.152,4.152,0,0,0,1.273-1.914,8.044,8.044,0,0,0,.4-2.592,8.453,8.453,0,0,0-.229-1.992,5.213,5.213,0,0,0-.707-1.669A3.568,3.568,0,0,0,9.8-13.126a3.5,3.5,0,0,0-1.763-.423H4.228l.218-.2v10.9L4.315-3.09Zm19.088-9.524-4.7,11.3a1.367,1.367,0,0,1-.468.656,1.129,1.129,0,0,1-.686.234A1.078,1.078,0,0,1,20.4-.753a1.23,1.23,0,0,1-.283-.823A1.5,1.5,0,0,1,20.182-2L25.6-15.306a1.446,1.446,0,0,1,.533-.69,1.121,1.121,0,0,1,.773-.2,1.256,1.256,0,0,1,.729.234,1.315,1.315,0,0,1,.49.656l5.354,13.04a1.526,1.526,0,0,1,.109.534,1.247,1.247,0,0,1-.381.957,1.2,1.2,0,0,1-.838.356,1.125,1.125,0,0,1-.707-.245,1.588,1.588,0,0,1-.49-.668L26.494-12.48ZM23.1-4.024l1.2-2.559h5.877l.414,2.559ZM43.863-.531a1.36,1.36,0,0,1-1-.389,1.31,1.31,0,0,1-.392-.968V-14.795H45.3V-1.888a1.292,1.292,0,0,1-.4.968A1.426,1.426,0,0,1,43.863-.531Zm-4.81-13.018a1.333,1.333,0,0,1-.947-.356,1.22,1.22,0,0,1-.381-.935,1.185,1.185,0,0,1,.381-.923,1.358,1.358,0,0,1,.947-.345h9.664a1.333,1.333,0,0,1,.947.356,1.22,1.22,0,0,1,.381.935,1.185,1.185,0,0,1-.381.923,1.358,1.358,0,0,1-.947.345Zm22.136.935-4.7,11.3a1.367,1.367,0,0,1-.468.656,1.129,1.129,0,0,1-.686.234,1.078,1.078,0,0,1-.871-.334,1.23,1.23,0,0,1-.283-.823A1.5,1.5,0,0,1,54.246-2l5.42-13.307A1.446,1.446,0,0,1,60.2-16a1.121,1.121,0,0,1,.773-.2,1.256,1.256,0,0,1,.729.234,1.315,1.315,0,0,1,.49.656l5.354,13.04a1.526,1.526,0,0,1,.109.534,1.247,1.247,0,0,1-.381.957,1.2,1.2,0,0,1-.838.356,1.125,1.125,0,0,1-.707-.245,1.588,1.588,0,0,1-.49-.668L60.558-12.48ZM57.162-4.024l1.2-2.559h5.877l.414,2.559ZM80.669-16.107a4.291,4.291,0,0,1,3.112,1,3.963,3.963,0,0,1,1.023,2.96,3.356,3.356,0,0,1-.5,1.836,3.251,3.251,0,0,1-1.48,1.224,5.962,5.962,0,0,1-2.416.434l.087-1a7.377,7.377,0,0,1,1.545.189,5.729,5.729,0,0,1,1.687.668,3.908,3.908,0,0,1,1.349,1.335,4.088,4.088,0,0,1,.533,2.192,5.368,5.368,0,0,1-.468,2.4,3.679,3.679,0,0,1-1.23,1.446,4.691,4.691,0,0,1-1.632.7A7.892,7.892,0,0,1,80.6-.531h-5.42a1.271,1.271,0,0,1-.947-.389,1.33,1.33,0,0,1-.381-.968V-14.75a1.33,1.33,0,0,1,.381-.968,1.271,1.271,0,0,1,.947-.389Zm-.392,2.626H76.4l.283-.356V-9.81l-.261-.2h3.918a1.707,1.707,0,0,0,1.132-.423,1.512,1.512,0,0,0,.5-1.224,1.818,1.818,0,0,0-.468-1.391A1.737,1.737,0,0,0,80.277-13.482Zm.174,6.1H76.49l.2-.178v4.7l-.218-.223H80.6a2.244,2.244,0,0,0,1.589-.545,2.125,2.125,0,0,0,.588-1.636,2.167,2.167,0,0,0-.392-1.446,1.67,1.67,0,0,0-.936-.556A5.026,5.026,0,0,0,80.451-7.385Zm26.032-.935a8.776,8.776,0,0,1-.544,3.115A7.965,7.965,0,0,1,104.4-2.656a7.1,7.1,0,0,1-2.351,1.725,7.049,7.049,0,0,1-2.971.623,6.976,6.976,0,0,1-2.96-.623,7.137,7.137,0,0,1-2.34-1.725A7.965,7.965,0,0,1,92.248-5.2,8.775,8.775,0,0,1,91.7-8.319a8.775,8.775,0,0,1,.544-3.115,7.965,7.965,0,0,1,1.534-2.548,7.137,7.137,0,0,1,2.34-1.725,6.976,6.976,0,0,1,2.96-.623,7.049,7.049,0,0,1,2.971.623,7.1,7.1,0,0,1,2.351,1.725,7.965,7.965,0,0,1,1.534,2.548A8.776,8.776,0,0,1,106.483-8.319Zm-2.83,0a6.119,6.119,0,0,0-.588-2.7,4.887,4.887,0,0,0-1.611-1.925,4.049,4.049,0,0,0-2.372-.712,4.049,4.049,0,0,0-2.372.712,4.82,4.82,0,0,0-1.6,1.914,6.2,6.2,0,0,0-.577,2.715,6.215,6.215,0,0,0,.577,2.7,4.8,4.8,0,0,0,1.6,1.925,4.049,4.049,0,0,0,2.372.712,4.049,4.049,0,0,0,2.372-.712,4.887,4.887,0,0,0,1.611-1.925A6.119,6.119,0,0,0,103.654-8.319ZM118.063-.531a1.36,1.36,0,0,1-1-.389,1.31,1.31,0,0,1-.392-.968V-14.795h2.83V-1.888a1.292,1.292,0,0,1-.4.968A1.426,1.426,0,0,1,118.063-.531Zm-4.81-13.018a1.333,1.333,0,0,1-.947-.356,1.22,1.22,0,0,1-.381-.935,1.185,1.185,0,0,1,.381-.923,1.358,1.358,0,0,1,.947-.345h9.664a1.333,1.333,0,0,1,.947.356,1.22,1.22,0,0,1,.381.935,1.185,1.185,0,0,1-.381.923,1.358,1.358,0,0,1-.947.345Z" transform="translate(515.264 352.489)" fill="#333"/>
    <path id="Trazado_1" data-name="Trazado 1" d="M-51.089,567.646H-68.953a1.594,1.594,0,0,0-1.583,1.6v13.1a1.594,1.594,0,0,0,1.583,1.6h9.619l5.76,3.657a.436.436,0,0,0,.447.012.448.448,0,0,0,.227-.391v-3.277h1.811a1.594,1.594,0,0,0,1.583-1.6v-13.1a1.594,1.594,0,0,0-1.583-1.605ZM-54.732,579.3h-4.347a1.216,1.216,0,0,1-1.208-1.224,1.216,1.216,0,0,1,1.208-1.222h4.347a1.215,1.215,0,0,1,1.207,1.224,1.215,1.215,0,0,1-1.207,1.224Zm0-4.894H-64.939a1.215,1.215,0,0,1-1.206-1.224,1.215,1.215,0,0,1,1.206-1.224h10.207a1.216,1.216,0,0,1,1.208,1.224,1.216,1.216,0,0,1-1.208,1.224Z" transform="translate(556.69 -231.773)" fill="#333"/>
  </g>
</svg>
