<svg xmlns="http://www.w3.org/2000/svg" xmlns:xlink="http://www.w3.org/1999/xlink" width="29.096" height="17.388" viewBox="0 0 29.096 17.388">
  <defs>
    <style>
      .cls-1, .cls-4 {
        fill: #fff;
      }

      .cls-1, .cls-6 {
        stroke: #cdcdcd;
      }

      .cls-2 {
        clip-path: url(#clip-path);
      }

      .cls-3 {
        fill: #ef3737;
      }

      .cls-5 {
        fill: #3b4ddb;
      }

      .cls-6 {
        fill: none;
      }
    </style>
    <clipPath id="clip-path">
      <rect id="Rectángulo_5421" data-name="Rectángulo 5421" class="cls-1" width="28.096" height="16.388" rx="2" transform="translate(1865.585 -113.47)"/>
    </clipPath>
  </defs>
  <g id="Grupo_6988" data-name="Grupo 6988" transform="translate(-1899.085 91.694)">
    <g id="Enmascarar_grupo_6633" data-name="Enmascarar grupo 6633" class="cls-2" transform="translate(34 22.276)">
      <g id="Grupo_6987" data-name="Grupo 6987" transform="translate(-33.33 0.53)">
        <path id="Unión_26" data-name="Unión 26" class="cls-3" d="M0,16.388v-1.26H28.095v1.26Zm0-2.521v-1.26H28.095v1.26Zm0-2.521V10.086H28.095v1.261Zm0-2.52V7.564H28.095V8.827ZM0,6.3V5.044H28.095V6.3ZM0,3.783V2.522H28.095v1.26ZM0,1.261V0H28.095V1.261Z" transform="translate(1898.915 -114)"/>
        <path id="Unión_27" data-name="Unión 27" class="cls-4" d="M0,13.867V12.606H28.095v1.261Zm0-2.521v-1.26H28.095v1.26ZM0,8.824V7.564H28.095v1.26ZM0,6.3V5.043H28.095V6.3ZM0,3.783V2.521H28.095V3.783ZM0,1.26V0H28.095V1.26Z" transform="translate(1898.915 -112.739)"/>
        <rect id="Rectángulo_181" data-name="Rectángulo 181" class="cls-5" width="12.83" height="8.826" transform="translate(1898.915 -114)"/>
        <path id="Unión_28" data-name="Unión 28" class="cls-4" d="M10.783,6.561l-.281.206.106-.334-.283-.2h.35l.108-.335.111.335h.349l-.283.2.11.334Zm-2.063,0-.282.206.106-.334-.283-.2h.35l.108-.335.109.335h.35l-.283.2L9,6.767Zm-2.069,0-.281.206.106-.334-.283-.2h.35l.108-.335.11.335h.35l-.283.2.11.334Zm-2.061,0-.284.206.108-.334-.281-.2h.35l.108-.335.11.335h.348l-.285.2.113.334Zm-2.066,0-.281.206.108-.334-.285-.2h.35l.108-.335.11.335h.351l-.284.2.109.334Zm-2.066,0-.285.206.111-.334L0,6.228H.348l.11-.335.109.335H.919l-.285.2.108.334Zm9.291-.7-.286.206.11-.334-.282-.206H9.64L9.749,5.2l.106.334h.352l-.281.206.1.334Zm-2.068,0L7.4,6.072l.11-.334-.285-.206h.351L7.681,5.2l.108.334h.353l-.285.206.108.334Zm-2.063,0-.283.206.106-.334-.283-.206h.35l.11-.334.108.334h.35l-.283.206.106.334Zm-2.063,0-.283.206.11-.334L3.1,5.531h.352L3.555,5.2l.108.334h.353l-.286.206.11.334Zm-2.066,0-.283.206.106-.334-.283-.206H1.38L1.489,5.2l.1.334h.353l-.283.206.106.334Zm9.295-.776-.281.2.106-.335-.283-.206h.35l.108-.334.111.334h.349l-.283.206.11.335Zm-2.063,0-.282.2.106-.335-.283-.206h.35l.108-.334.109.334h.35L8.9,4.959,9,5.295Zm-2.069,0-.281.2.106-.335-.283-.206h.35l.108-.334.11.334h.35l-.283.206.11.335Zm-2.061,0-.284.2.108-.335-.281-.206h.35l.108-.334.11.334h.348l-.285.206.113.335Zm-2.066,0-.281.2.108-.335-.285-.206h.35l.108-.334.11.334h.351L2.7,4.959l.109.335Zm-2.066,0-.285.2.111-.335L0,4.754H.348l.11-.334.109.334H.919l-.285.206.108.335Zm9.291-.7L9.463,4.6l.11-.334-.282-.206H9.64l.109-.335.106.335h.352l-.281.206.1.334Zm-2.068,0L7.4,4.6l.11-.334-.285-.206h.351l.107-.335.108.335h.353l-.285.206.108.334Zm-2.063,0L5.334,4.6l.106-.334-.283-.206h.35l.11-.335.108.335h.35l-.283.206L5.9,4.6Zm-2.063,0L3.272,4.6l.11-.334L3.1,4.058h.352l.108-.335.108.335h.353l-.286.206.11.334Zm-2.066,0L1.205,4.6l.106-.334-.283-.206H1.38l.108-.335.1.335h.353l-.283.206L1.77,4.6Zm9.295-.777-.281.206.106-.334-.283-.206h.35l.108-.335.111.335h.349l-.283.206.11.334Zm-2.063,0-.282.206.106-.334-.283-.206h.35l.108-.335.109.335h.35L8.9,3.488,9,3.822Zm-2.069,0-.281.206.106-.334-.283-.206h.35l.108-.335.11.335h.35l-.283.206.11.334Zm-2.061,0-.284.206.108-.334-.281-.206h.35l.108-.335.11.335h.348l-.285.206.113.334Zm-2.066,0-.281.206.108-.334-.285-.206h.35l.108-.335.11.335h.351L2.7,3.488l.109.334Zm-2.066,0-.285.206.111-.334L0,3.282H.348l.11-.335.109.335H.919l-.285.206.108.334Zm9.291-.694-.286.2.11-.334-.282-.207H9.64l.109-.334.106.334h.352l-.281.207.1.334Zm-2.068,0-.283.2.11-.334-.285-.207h.351l.107-.334.108.334h.353l-.285.207.108.334Zm-2.063,0-.283.2.106-.334-.283-.207h.35l.11-.334.108.334h.35l-.283.207.106.334Zm-2.063,0-.283.2.11-.334L3.1,2.585h.352l.108-.334.108.334h.353l-.286.207.11.334Zm-2.066,0-.283.2.106-.334-.283-.207H1.38l.108-.334.1.334h.353l-.283.207.106.334Zm9.295-.78-.281.207.106-.335-.283-.2h.35l.108-.334.111.334h.349l-.283.2.11.335Zm-2.063,0-.282.207.106-.335-.283-.2h.35l.108-.334.109.334h.35l-.283.2L9,2.349Zm-2.069,0-.281.207.106-.335-.283-.2h.35l.108-.334.11.334h.35l-.283.2.11.335Zm-2.061,0-.284.207.108-.335-.281-.2h.35l.108-.334.11.334h.348l-.285.2.113.335Zm-2.066,0-.281.207.108-.335-.285-.2h.35l.108-.334.11.334h.351l-.284.2.109.335Zm-2.066,0-.285.207.111-.335L0,1.809H.348l.11-.334.109.334H.919l-.285.2.108.335Zm9.291-.695-.286.2.11-.334L9.291,1.11H9.64L9.749.776l.106.334h.352l-.281.207.1.334Zm-2.068,0-.283.2.11-.334L7.223,1.11h.351L7.681.776l.108.334h.353l-.285.207.108.334Zm-2.063,0-.283.2.106-.334L5.158,1.11h.35l.11-.334.108.334h.35l-.283.207.106.334Zm-2.063,0-.283.2.11-.334L3.1,1.11h.352L3.555.776l.108.334h.353l-.286.207.11.334Zm-2.066,0-.283.2.106-.334L1.029,1.11H1.38L1.489.776l.1.334h.353l-.283.207.106.334ZM10.783.67,10.5.875l.106-.334L10.326.334h.35L10.783,0l.111.334h.349L10.96.541l.11.334ZM8.721.67,8.439.875,8.545.541,8.263.334h.35L8.721,0,8.83.334h.35L8.9.541,9,.875ZM6.652.67,6.371.875,6.477.541,6.194.334h.35L6.652,0l.11.334h.35L6.828.541l.11.334ZM4.591.67,4.307.875,4.415.541,4.134.334h.35L4.591,0,4.7.334h.348L4.764.541l.113.334ZM2.524.67,2.243.875,2.351.541,2.066.334h.35L2.524,0l.11.334h.351L2.7.541l.109.334ZM.458.67.173.875.285.541,0,.334H.348L.458,0,.567.334H.919L.634.541.743.875Z" transform="translate(1899.613 -113.027)"/>
      </g>
    </g>
    <rect id="Rectángulo_5422" data-name="Rectángulo 5422" class="cls-6" width="28.096" height="16.388" rx="2" transform="translate(1899.585 -91.194)"/>
  </g>
</svg>
