<svg id="Grupo_1008" data-name="Grupo 1008" xmlns="http://www.w3.org/2000/svg" width="89.196" height="89.196" viewBox="0 0 89.196 89.196">
  <circle id="Elipse_997" data-name="Elipse 997" cx="44.598" cy="44.598" r="44.598" transform="translate(0 0)" fill="#25d366"/>
  <path id="whatsapp-brands" d="M43.156,39.242A25.2,25.2,0,0,0,25.368,32,24.958,24.958,0,0,0,.215,56.7,24.379,24.379,0,0,0,3.569,69.046L0,81.839,13.335,78.4a25.443,25.443,0,0,0,12.021,3h.011c13.857,0,25.391-11.08,25.391-24.7a24.579,24.579,0,0,0-7.6-17.466Zm-17.788,38a21.163,21.163,0,0,1-10.65-2.859l-.759-.445L6.05,75.976,8.158,68.4l-.5-.779A20.187,20.187,0,0,1,4.464,56.7,20.748,20.748,0,0,1,25.379,36.172,20.915,20.915,0,0,1,40.154,42.19,20.431,20.431,0,0,1,46.51,56.708C46.51,68.033,36.891,77.245,25.368,77.245ZM36.834,61.87c-.623-.311-3.716-1.8-4.294-2s-1-.311-1.416.312-1.62,2-1.994,2.425-.736.467-1.36.156c-3.694-1.813-6.118-3.237-8.554-7.342-.646-1.09.646-1.012,1.847-3.371a1.126,1.126,0,0,0-.057-1.079c-.159-.311-1.416-3.349-1.937-4.583-.51-1.2-1.031-1.035-1.416-1.057-.363-.022-.782-.022-1.2-.022a2.348,2.348,0,0,0-1.677.768,6.883,6.883,0,0,0-2.2,5.151c0,3.037,2.255,5.974,2.561,6.386s4.43,6.642,10.741,9.323c3.988,1.691,5.552,1.836,7.546,1.546,1.212-.178,3.716-1.491,4.237-2.937a5.074,5.074,0,0,0,.363-2.937C37.876,62.326,37.457,62.17,36.834,61.87Z" transform="translate(19.577 -12.172)" fill="#fff"/>
</svg>
